<?xml version="1.0" encoding="UTF-8" standalone="no"?>
<!-- Created with Inkscape (http://www.inkscape.org/) -->

<svg
   xmlns:dc="http://purl.org/dc/elements/1.1/"
   xmlns:cc="http://creativecommons.org/ns#"
   xmlns:rdf="http://www.w3.org/1999/02/22-rdf-syntax-ns#"
   xmlns:svg="http://www.w3.org/2000/svg"
   xmlns="http://www.w3.org/2000/svg"
   xmlns:sodipodi="http://sodipodi.sourceforge.net/DTD/sodipodi-0.dtd"
   xmlns:inkscape="http://www.inkscape.org/namespaces/inkscape"
   width="768"
   height="256"
   id="svg3526"
   version="1.1"
   inkscape:version="0.48.4 r9939"
   sodipodi:docname="新建文档 6">
  <defs
     id="defs3528" />
  <sodipodi:namedview
     id="base"
     pagecolor="#ffffff"
     bordercolor="#666666"
     borderopacity="1.0"
     inkscape:pageopacity="0.0"
     inkscape:pageshadow="2"
     inkscape:zoom="0.7"
     inkscape:cx="161.75257"
     inkscape:cy="486.53262"
     inkscape:document-units="px"
     inkscape:current-layer="layer1"
     showgrid="false"
     inkscape:window-width="1280"
     inkscape:window-height="925"
     inkscape:window-x="0"
     inkscape:window-y="31"
     inkscape:window-maximized="1" />
  <metadata
     id="metadata3531">
    <rdf:RDF>
      <cc:Work
         rdf:about="">
        <dc:format>image/svg+xml</dc:format>
        <dc:type
           rdf:resource="http://purl.org/dc/dcmitype/StillImage" />
        <dc:title></dc:title>
      </cc:Work>
    </rdf:RDF>
  </metadata>
  <g
     inkscape:label="Layer 1"
     inkscape:groupmode="layer"
     id="layer1"
     transform="translate(0,-796.36218)">
    <g
       id="g3639"
       transform="translate(0,8.4281275)">
      <g
         transform="translate(-94,2.0495105)"
         id="g3624">
        <path
           style="fill:#e9ddaf;fill-opacity:1;stroke:#ff00ff;stroke-width:0;stroke-miterlimit:4;stroke-opacity:1;stroke-dasharray:none"
           id="path3602"
           d="m 566.25487,69.83295 c -0.96588,-0.220342 -1.94618,-0.384227 -2.92133,-0.561643 -1.49576,-0.268717 -2.98564,-0.570347 -4.48107,-0.842591 -1.64061,-0.28532 -3.2831,-0.560246 -4.92176,-0.856669 -1.833,-0.313935 -3.66719,-0.621888 -5.50379,-0.914175 -2.02383,-0.317414 -4.05419,-0.589951 -6.08851,-0.83022 -2.30433,-0.292733 -4.61506,-0.483895 -6.93664,-0.546219 -2.49807,-0.05647 -4.99348,0.119019 -7.47821,0.359128 -2.52605,0.281418 -5.02721,0.734072 -7.50072,1.313138 -2.36265,0.568961 -4.63506,1.421283 -6.85894,2.38915 -0.80824,0.385749 -1.23594,0.57447 -2.01753,1.008394 -0.32312,0.179392 -1.2765,0.745602 -0.95559,0.562279 11.62452,-6.640589 7.12762,-4.243632 4.64139,-2.487868 -1.58066,1.123263 -2.96105,2.47806 -4.22894,3.937255 -1.07602,1.271965 -1.97405,2.675979 -2.76956,4.135972 -0.69177,1.292039 -1.16904,2.676503 -1.54975,4.08705 -0.31527,1.215092 -0.34528,2.444319 -0.14542,3.676508 0.20699,1.19221 0.73745,2.254904 1.36847,3.271806 0.64557,1.066763 1.51512,1.942314 2.45568,2.747085 1.17645,0.930613 2.51785,1.605628 3.87046,2.236619 1.58014,0.714428 3.21298,1.300986 4.85018,1.868641 1.7196,0.60277 3.48044,1.074285 5.24378,1.528565 1.87986,0.467563 3.77426,0.872617 5.67349,1.252664 1.98888,0.394322 3.99021,0.719472 5.99477,1.022082 2.07946,0.30735 4.15614,0.633484 6.23132,0.968455 2.06273,0.3147 4.12474,0.626361 6.17333,1.024224 1.95929,0.36992 3.91087,0.77367 5.85698,1.20704 1.93746,0.45742 3.8446,1.0292 5.72696,1.67462 1.79444,0.60901 3.47781,1.48018 5.08542,2.47405 1.55013,0.96004 2.93701,2.14125 4.23205,3.41757 1.30302,1.29993 2.40341,2.77229 3.4565,4.27562 1.0295,1.50043 1.76814,3.15606 2.35812,4.86951 0.55307,1.62356 0.7674,3.32209 0.823,5.02798 0.0225,1.6615 -0.37219,3.2703 -0.93274,4.82135 -0.61991,1.58686 -1.55267,3.0056 -2.58557,4.34864 -1.11231,1.44281 -2.45033,2.67686 -3.84728,3.83606 -3.86431,2.87007 -8.09799,5.28596 -12.43502,7.35829 -2.11345,0.97004 -4.3093,1.73762 -6.51135,2.47695 -2.30868,0.77079 -4.65317,1.42083 -7.01568,2.00231 -2.49493,0.60646 -5.03657,0.92806 -7.58895,1.15943 -2.6483,0.22412 -5.30939,0.19582 -7.96126,0.0648 -2.84714,-0.13096 -5.66727,-0.5384 -8.47703,-0.99501 -2.97704,-0.52819 -5.92727,-1.19789 -8.86118,-1.92571 -2.88362,-0.69934 -5.70825,-1.60553 -8.51377,-2.56527 -2.79202,-0.93911 -5.45024,-2.20482 -8.04353,-3.59075 -2.60686,-1.38362 -5.05367,-3.03021 -7.45123,-4.74371 -2.32197,-1.69616 -4.46249,-3.62032 -6.5823,-5.55815 -1.9989,-1.79371 -3.73562,-3.83014 -5.31721,-5.99328 -1.38507,-1.93625 -2.49603,-4.03623 -3.44316,-6.21451 -0.68367,-1.64718 -1.17164,-3.35984 -1.55441,-5.09842 0,0 7.55319,-4.05201 7.55319,-4.05201 l 0,0 c 0.35321,1.68901 0.81783,3.35061 1.47305,4.9503 0.9154,2.12261 1.99481,4.16691 3.34727,6.0483 1.55399,2.11436 3.26609,4.09778 5.22902,5.84763 2.09945,1.91158 4.22028,3.80881 6.52726,5.47043 2.3757,1.68532 4.8066,3.29412 7.38985,4.6486 2.57088,1.34672 5.20584,2.5694 7.96784,3.47711 2.7916,0.94124 5.60452,1.81973 8.47186,2.504 2.92047,0.70981 5.85555,1.37053 8.82065,1.86752 2.79098,0.43616 5.59358,0.80905 8.41982,0.91457 2.63075,0.0958 5.26841,0.10026 7.89114,-0.16079 2.52933,-0.25672 5.04479,-0.63314 7.5116,-1.26216 2.34861,-0.60033 4.67779,-1.27508 6.97256,-2.05821 2.18549,-0.75441 4.36309,-1.54625 6.44242,-2.56438 3.20548,-1.62996 0.91528,-0.48771 -5.4756,3.2511 -0.2896,0.16942 0.58923,-0.32127 0.87946,-0.48964 0.82401,-0.47803 1.61631,-1.0065 2.38086,-1.57468 1.41189,-1.10175 2.78009,-2.27142 3.9195,-3.66182 1.04921,-1.26926 2.01621,-2.59817 2.69151,-4.11084 0.59779,-1.44271 1.04213,-2.94576 1.07968,-4.52015 -0.0168,-1.62473 -0.18342,-3.24575 -0.69988,-4.79644 -0.55063,-1.64195 -1.2484,-3.22673 -2.23749,-4.65793 -1.02526,-1.4588 -2.09855,-2.8863 -3.37448,-4.13934 -1.2631,-1.22111 -2.61743,-2.34493 -4.12772,-3.25202 -1.57876,-0.93815 -3.22926,-1.75078 -4.98118,-2.31662 -1.86683,-0.61703 -3.75538,-1.16987 -5.67511,-1.59901 -1.94087,-0.42708 -3.88966,-0.81432 -5.84199,-1.18551 -2.04628,-0.37794 -4.10453,-0.67983 -6.15969,-1.00475 -2.07407,-0.33256 -4.15014,-0.65268 -6.22762,-0.9632 -2.01277,-0.31279 -4.02204,-0.64952 -6.01837,-1.05579 -1.90859,-0.39189 -3.81325,-0.80528 -5.70038,-1.2915 -1.77832,-0.46941 -3.55069,-0.965961 -5.28332,-1.58652 -1.6574,-0.586604 -3.30953,-1.195692 -4.90154,-1.945489 -1.40519,-0.683863 -2.79384,-1.422582 -3.99662,-2.433345 -0.98733,-0.877578 -1.89863,-1.830289 -2.58779,-2.966677 -0.68392,-1.107181 -1.26817,-2.263533 -1.52449,-3.552083 -0.26643,-1.333293 -0.30075,-2.665978 -0.0204,-4.004832 0.35129,-1.466566 0.79835,-2.910787 1.46563,-4.268249 0.7626,-1.516561 1.64187,-2.971015 2.69521,-4.306009 1.23477,-1.519646 2.57833,-2.94827 4.15109,-4.126943 3.99796,-3.043657 8.48167,-5.431583 13.02676,-7.553799 2.25712,-0.931204 4.56576,-1.735862 6.95291,-2.26793 2.4988,-0.542884 5.02141,-0.979374 7.56856,-1.222774 2.50754,-0.210892 5.02315,-0.36863 7.54085,-0.273418 2.33548,0.09488 4.66061,0.314159 6.97971,0.60647 2.04065,0.251764 4.07792,0.530951 6.10801,0.85787 1.83887,0.299502 3.67746,0.601467 5.51209,0.925999 1.64116,0.288493 3.28394,0.567815 4.92437,0.860407 1.49443,0.277404 2.98435,0.578534 4.48119,0.84277 0.978,0.182167 1.95745,0.357436 2.92886,0.572418 0,0 -7.03253,4.900304 -7.03253,4.900304 z"
           inkscape:connector-curvature="0"
           transform="translate(0,796.36218)" />
        <path
           style="fill:#e9ddaf;fill-opacity:1;stroke:#ff00ff;stroke-width:0;stroke-miterlimit:4;stroke-opacity:1;stroke-dasharray:none"
           id="path3604"
           d="m 598.10431,62.808846 c 0,0.573121 0,1.146242 0,1.719363 0,0.932427 0,1.864854 0,2.797281 0,1.333082 0,2.666164 0,3.999245 0,1.649407 0,3.298813 0,4.948219 0,1.828192 0,3.656384 0,5.484576 0,2.000237 0,4.000474 0,6.000711 0,2.099377 0,4.198754 0,6.298131 0,2.100339 0,4.200677 0,6.301018 0,2.08175 0,4.16351 0,6.24527 -0.002,2.02418 -0.007,4.0482 0.0251,6.07216 0.05,1.9842 0.18002,3.96582 0.31865,5.94553 0.1434,2.00614 0.49107,3.98588 0.92672,5.94663 0.40964,1.8067 0.96395,3.57503 1.63755,5.2996 0.53938,1.45981 1.32467,2.77431 2.31004,3.97077 0.7698,0.9002 1.73986,1.53051 2.85867,1.89469 1.06494,0.34659 2.14862,0.31388 3.24309,0.18364 1.20374,-0.19373 2.32009,-0.7084 3.41563,-1.22105 -1.51686,1.06455 3.29818,-1.84695 1.68412,-0.92315 -11.894,6.80751 -8.13328,4.90136 -5.68804,3.15128 1.15327,-0.86656 2.16655,-1.89606 3.15523,-2.94127 1.03257,-1.08813 1.89808,-2.31405 2.75259,-3.54223 0.89321,-1.27895 1.64219,-2.64788 2.3551,-4.03282 0.72015,-1.40778 1.33979,-2.86329 1.92724,-4.3304 0.5884,-1.48574 1.09491,-3.00132 1.57372,-4.52527 0.51878,-1.54557 0.85319,-3.13938 1.15909,-4.73769 0.30978,-1.63882 0.57306,-3.28553 0.78978,-4.93909 0.24206,-1.71438 0.25422,-3.44232 0.22298,-5.16918 -0.0341,-1.42201 -0.0818,-2.8437 -0.14448,-4.264739 0.13225,-0.153594 -0.32151,-1.688461 -0.0154,-1.045623 9.56995,-5.496003 7.49266,-6.238089 7.14686,-2.369234 -0.0837,1.115098 -0.13082,2.232403 -0.20209,3.348323 -0.097,1.47651 -0.18195,2.953773 -0.26047,4.431363 -0.0835,1.59692 -0.15242,3.19455 -0.21859,4.79226 -0.067,1.64426 -0.12497,3.28887 -0.1786,4.93362 -0.0883,1.73817 -0.0425,3.47642 0.0796,5.21122 0.10243,1.77909 0.38757,3.53491 0.78055,5.2706 0.3629,1.61285 0.92759,3.16228 1.59204,4.67216 0.57954,1.35539 1.3821,2.57695 2.31246,3.71249 0.83727,1.02046 1.87539,1.81099 3.00267,2.48028 1.04113,0.64672 2.18645,0.98836 3.38721,1.16654 1.20018,0.13882 2.38314,0.0167 3.5504,-0.26634 1.23851,-0.29109 2.39243,-0.81705 3.4878,-1.45301 2.88109,-1.74685 -0.22557,0.14262 -6.16047,3.53296 -0.20119,0.11493 0.3947,-0.24293 0.58837,-0.37013 0.60811,-0.39938 1.18035,-0.84076 1.7509,-1.29113 1.24571,-1.01158 2.35732,-2.17221 3.41627,-3.37403 1.20367,-1.41698 2.27897,-2.93541 3.33052,-4.46662 1.1289,-1.62742 2.12024,-3.34166 3.08676,-5.06846 0.98757,-1.77192 1.83578,-3.61618 2.6522,-5.47164 0.83166,-1.80241 1.43928,-3.68422 1.89934,-5.61142 0.44252,-1.87948 0.68184,-3.79557 0.86531,-5.71489 0.16644,-1.7605 0.15221,-3.52824 0.0467,-5.29116 -0.0934,-1.563492 -0.38527,-3.101912 -0.80318,-4.608566 -0.34588,-1.142181 -0.80965,-2.246159 -1.50559,-3.218755 -0.40244,-0.532024 -0.86169,-1.017353 -1.53385,-1.154995 -0.16277,0.03182 -0.24683,0.03049 -0.38763,0.130972 -0.13521,0.09649 -0.48798,0.442984 -0.34351,0.361011 6.72657,-3.816641 9.23993,-5.827612 6.85003,-3.932703 -0.68075,0.708086 -1.00285,1.656403 -1.31423,2.566951 -0.47261,1.469036 -0.7752,2.984375 -1.05973,4.498726 -0.33321,1.827812 -0.59943,3.666789 -0.85463,5.506819 -0.28842,1.94537 -0.48809,3.8985 -0.57407,5.86292 -0.12187,2.00574 0.0128,4.00337 0.26758,5.9921 0.29246,2.02213 0.76711,4.01118 1.33686,5.97139 0.55241,1.88032 1.3152,3.68313 2.17218,5.44192 0.83785,1.68114 1.83696,3.27074 2.92086,4.80203 0.99881,1.41595 2.1592,2.70226 3.36178,3.94539 1.12024,1.2008 2.46365,2.10784 3.90937,2.86386 1.4411,0.71896 2.98444,1.17 4.55115,1.5145 1.6025,0.37468 3.23313,0.40029 4.86758,0.34274 1.73996,-0.0725 3.44626,-0.44984 5.12907,-0.87368 1.78829,-0.41996 3.45184,-1.19061 5.09123,-1.99735 2.63276,-1.41715 7.07224,-3.9559 -4.8275,2.81696 -0.28481,0.1621 0.56105,-0.3389 0.83792,-0.51421 0.78678,-0.49816 0.89842,-0.58945 1.6653,-1.12581 1.75037,-1.26265 3.35181,-2.71474 4.91406,-4.19942 1.60532,-1.52675 3.04405,-3.21083 4.41134,-4.95018 1.35083,-1.73896 2.52765,-3.60078 3.65667,-5.48829 1.09034,-1.85392 2.05978,-3.77476 2.97603,-5.71948 0.87202,-1.83465 1.43108,-3.78319 1.83329,-5.76741 0.32284,-1.74438 0.41462,-3.51576 0.37412,-5.28576 -0.0598,-1.56397 -0.43584,-3.07949 -0.90122,-4.565118 -0.43194,-1.390868 -1.08023,-2.692111 -1.7978,-3.953896 -0.68105,-1.187159 -1.55766,-2.22377 -2.54945,-3.158934 -0.91905,-0.877103 -2.02585,-1.386978 -3.26214,-1.613482 -1.25777,-0.18892 -2.4499,0.133127 -3.60666,0.596142 -2.62793,1.343457 -6.50601,3.553961 5.54929,-3.21989 0.21528,-0.120965 -0.41307,0.271081 -0.61259,0.416585 -0.53923,0.393252 -0.71957,0.570024 -1.22724,1.012037 -1.39043,1.253436 -2.42821,2.811499 -3.399,4.395653 -1.11809,1.834098 -1.98759,3.793412 -2.70742,5.812543 -0.77394,2.15446 -1.24564,4.38892 -1.59952,6.6448 -0.32696,2.13127 -0.46513,4.28237 -0.46976,6.43668 -0.007,1.70563 0.17322,3.39681 0.70736,5.01868 0.41846,1.18012 1.11456,2.21195 1.92966,3.1502 0.70276,0.76604 1.5092,1.4044 2.42249,1.89632 0.82238,0.41756 1.70243,0.63425 2.61659,0.7001 0.88374,0.0498 1.74399,-0.0788 2.57503,-0.37263 -0.59122,0.53417 2.47306,-1.30054 1.66585,-0.83797 -6.86589,3.9345 -9.13489,5.409 -6.44407,3.67327 0.98994,-0.66566 1.83695,-1.50301 2.6313,-2.38596 1.01692,-1.12121 1.83758,-2.38799 2.58603,-3.69778 0.92815,-1.67632 1.69189,-3.43526 2.39462,-5.21561 0.84722,-2.16179 1.45924,-4.40309 2.03257,-6.64972 0.65248,-2.62776 1.1685,-5.28609 1.65603,-7.94848 0.51503,-2.846278 0.94201,-5.707199 1.34972,-8.570467 0.41011,-2.869105 0.76231,-5.745938 1.10092,-8.624207 0.34031,-2.820469 0.61278,-5.647759 0.85369,-8.478203 0.23153,-2.728249 0.31648,-5.464863 0.35178,-8.201651 0.035,-2.645096 -0.0653,-5.288081 -0.18078,-7.929932 -0.10206,-1.987869 -0.22931,-3.978084 -0.5065,-5.950253 -0.0115,-0.0598 -0.0801,-0.489886 -0.13919,-0.610347 -0.0754,-0.153671 -0.007,0.570233 0.14552,0.492437 6.88331,-3.512336 8.53429,-6.621097 7.02494,-3.884628 -0.40945,1.652457 -0.59231,3.35944 -0.81788,5.045723 -0.3935,3.058448 -0.65006,6.132044 -0.89443,9.205278 -0.2887,3.781456 -0.5131,7.567421 -0.73517,11.353253 -0.22016,3.774663 -0.41399,7.550775 -0.59928,11.327286 -0.17512,3.603131 -0.33527,7.206964 -0.48916,10.811057 -0.15736,3.34103 -0.23396,6.684934 -0.25741,10.029364 -0.0319,3.14664 0.16882,6.2873 0.47578,9.41695 0.28532,2.89296 0.77031,5.75962 1.37786,8.60083 0.48735,2.34436 1.23132,4.61448 2.22522,6.78995 0.73208,1.55431 1.63925,3.0089 2.80383,4.27262 0.85143,0.93757 1.89282,1.42219 3.10329,1.69341 1.17241,0.1777 2.33074,-0.0222 3.47123,-0.28548 0.20041,-0.0698 0.40223,-0.13571 0.60123,-0.20946 0.52664,-0.19517 0.70639,-0.27135 1.209,-0.53012 0.20516,-0.10563 0.80786,-0.44636 0.60788,-0.33123 -7.512,4.32465 -8.87182,5.16102 -6.08669,3.46403 1.37097,-0.86646 2.5799,-1.9518 3.7294,-3.08833 1.26447,-1.27267 2.33865,-2.70661 3.34164,-4.18864 1.05867,-1.58322 1.9188,-3.28399 2.75359,-4.99207 0.8713,-1.77321 1.58248,-3.61682 2.25013,-5.47424 0.67439,-1.91796 1.27209,-3.86169 1.82299,-5.81835 0.53208,-1.87758 0.93842,-3.78433 1.23695,-5.71191 0.29383,-1.83034 0.37264,-3.68321 0.42141,-5.53325 0.0583,-1.5316 -0.0923,-3.05543 -0.2745,-4.573406 -0.10502,-0.862133 -0.2123,-1.725105 -0.45883,-2.559743 0.006,-0.160444 -0.3439,-0.75245 -0.26543,-0.239486 0.46215,2.944352 -0.0429,0.165162 7.164,-3.985802 0.12896,-0.07428 -0.17862,0.240653 -0.24131,0.375627 -0.0931,0.200428 -0.1237,0.329658 -0.18945,0.544638 -0.22041,0.848301 -0.32863,1.719809 -0.4375,2.58781 -0.14482,1.192725 -0.24634,2.390082 -0.34323,3.587468 -0.11043,1.383394 -0.19696,2.768544 -0.27806,4.153914 -0.11494,1.58193 -0.14629,3.16559 -0.14002,4.751 0.0248,1.73879 0.13272,3.47575 0.27762,5.2083 0.16383,1.83368 0.46224,3.65179 0.86254,5.44775 0.44054,1.9122 1.10952,3.75804 1.82925,5.57974 0.69019,1.73844 1.54227,3.40282 2.5281,4.9904 0.78289,1.31254 1.81289,2.39121 3.02853,3.30115 0.97256,0.71484 2.10436,1.02924 3.27336,1.23452 1.14339,0.14751 2.28959,0.0119 3.39931,-0.27303 1.25479,-0.32939 2.41897,-0.9111 3.53807,-1.55465 -12.56429,7.60352 -6.36503,3.99398 -3.87887,1.51478 1.10806,-1.1564 2.02806,-2.46976 2.88601,-3.81685 0.96141,-1.44617 1.64661,-3.01342 2.14746,-4.66898 0.52671,-1.76151 0.66633,-3.59124 0.69958,-5.41903 0.0173,-0.91391 -0.0598,-1.82418 -0.13809,-2.73342 0,0 7.60125,-3.9611 7.60125,-3.9611 l 0,0 c 0.091,0.93473 0.18458,1.87057 0.17814,2.81122 -0.006,1.89059 -0.10363,3.78934 -0.59845,5.62481 -0.46364,1.72301 -1.06481,3.37992 -2.04894,4.88399 -0.83818,1.3949 -1.74323,2.75169 -2.81605,3.97986 -2.97357,3.28522 -6.60604,5.07252 -10.70893,7.15953 -1.17504,0.5932 -2.38989,1.11842 -3.6929,1.35642 -1.19783,0.18491 -2.40949,0.25821 -3.60374,-0.008 -1.2581,-0.29973 -2.45621,-0.75116 -3.48706,-1.55698 -1.26711,-1.00145 -2.35099,-2.17443 -3.18821,-3.5647 -1.01068,-1.63169 -1.8906,-3.3387 -2.60347,-5.1227 -0.73997,-1.85997 -1.42901,-3.74427 -1.89248,-5.69511 -0.42526,-1.82852 -0.73514,-3.68273 -0.91764,-5.55186 -0.15755,-1.75272 -0.26644,-3.51055 -0.3094,-5.26996 -0.0117,-1.60124 -0.006,-3.20123 0.11566,-4.79912 0.0781,-1.39097 0.1636,-2.78162 0.26962,-4.17078 0.0942,-1.20765 0.19212,-2.41527 0.32748,-3.61914 0.10499,-0.89799 0.20714,-1.79807 0.39058,-2.684218 0.64578,-3.183742 4.34431,-7.506067 7.92989,-5.677655 0.39153,0.319035 0.70584,0.660264 0.84916,1.160208 0.2846,0.875796 0.42812,1.781402 0.53156,2.695309 0.19483,1.554014 0.37532,3.113821 0.33126,4.683446 -0.0345,1.88035 -0.0971,3.76565 -0.37384,5.62858 -0.27562,1.95946 -0.66043,3.89893 -1.19117,5.80659 -0.53483,1.97653 -1.13533,3.93504 -1.79728,5.87283 -0.65443,1.88474 -1.35396,3.75639 -2.21054,5.5602 -0.82903,1.7362 -1.67426,3.47017 -2.70683,5.0969 -0.98428,1.52528 -2.02941,3.01199 -3.27891,4.33557 -1.1155,1.19752 -2.31968,2.31983 -3.6569,3.26831 -3.45082,2.36407 -7.05964,4.8494 -11.15259,5.89157 -1.23036,0.2047 -2.48076,0.29452 -3.70136,-0.0336 -1.30773,-0.40849 -2.44326,-1.07481 -3.36872,-2.10441 -1.20158,-1.34609 -2.16639,-2.86615 -2.93644,-4.49917 -1.02597,-2.22791 -1.80818,-4.54976 -2.31506,-6.95308 -0.62618,-2.86853 -1.12487,-5.76418 -1.42324,-8.68657 -0.32137,-3.15576 -0.53942,-6.32302 -0.51719,-9.49729 0.0156,-3.35371 0.0873,-6.70711 0.24318,-10.057458 0.15316,-3.6057 0.31254,-7.211142 0.48672,-10.815895 0.18434,-3.778929 0.37673,-7.557485 0.5956,-11.334595 0.22111,-3.790883 0.44424,-7.581889 0.72742,-11.368748 0.24104,-3.086169 0.4932,-6.172648 0.87457,-9.245281 0.22365,-1.730418 0.45886,-3.460933 0.75282,-5.180581 0.59793,-3.545568 7.47823,-7.811344 8.30042,-3.656884 0.30947,1.995106 0.4329,4.014293 0.54724,6.028346 0.11856,2.656082 0.23053,5.312969 0.20258,7.972553 -0.029,2.754984 -0.10006,5.509988 -0.32382,8.257187 -0.23782,2.838588 -0.50037,5.674665 -0.84134,8.503051 -0.33647,2.884291 -0.68434,5.767454 -1.09178,8.642736 -0.40487,2.872878 -0.82639,5.743784 -1.33503,8.600465 -0.48267,2.678688 -0.99217,5.353434 -1.63112,8.000044 -0.56445,2.27532 -1.16102,4.54778 -1.98787,6.74458 -0.68687,1.81478 -1.44163,3.60447 -2.3455,5.32343 -0.73136,1.3541 -1.5054,2.68917 -2.51577,3.85934 -0.77466,0.93285 -1.58615,1.83768 -2.55234,2.57927 -3.00612,2.31096 -6.36499,4.37691 -9.99424,5.52905 -0.91475,0.1797 -1.84625,0.23813 -2.7731,0.104 -0.98523,-0.17194 -1.93724,-0.48152 -2.80807,-0.98245 -0.96037,-0.58674 -1.8285,-1.30001 -2.57726,-2.14372 -0.87062,-1.03232 -1.62349,-2.1573 -2.09277,-3.43312 -0.58957,-1.69716 -0.83449,-3.46589 -0.83719,-5.26341 -0.0194,-2.19256 0.0958,-4.38272 0.41063,-6.55488 0.33813,-2.29851 0.76445,-4.58371 1.53274,-6.78407 0.68655,-2.07312 1.52688,-4.086787 2.63314,-5.97549 0.95965,-1.637108 1.96077,-3.264677 3.30151,-4.624486 3.11191,-2.984669 6.97356,-5.161546 10.98848,-6.717693 1.27825,-0.369121 2.58165,-0.535245 3.89308,-0.205844 1.32411,0.38465 2.51956,1.017001 3.51047,1.993886 1.03327,1.008198 1.95411,2.115463 2.67615,3.371564 0.74717,1.313343 1.42617,2.666282 1.88596,4.11061 0.49956,1.553914 0.91027,3.137728 1.01238,4.774443 0.0704,1.82437 0.004,3.64975 -0.28945,5.45525 -0.37292,2.04222 -0.88751,4.05662 -1.74431,5.95641 -0.89879,1.97236 -1.86894,3.91258 -2.94114,5.79699 -1.11609,1.9175 -2.28305,3.80834 -3.61393,5.58616 -1.34857,1.77688 -2.77028,3.49952 -4.36271,5.0658 -1.55117,1.51499 -3.14451,2.99383 -4.86844,4.31242 -3.84514,2.85573 -8.08924,5.14187 -12.34918,7.31796 -1.67453,0.7786 -3.39053,1.46444 -5.20269,1.85443 -1.72208,0.39049 -3.46669,0.71269 -5.239,0.72637 -1.68136,0.01 -3.35531,-0.10461 -4.99243,-0.51844 -1.61474,-0.40432 -3.20435,-0.91473 -4.678,-1.70317 -1.49361,-0.83584 -2.88013,-1.82597 -4.05035,-3.0871 -1.22612,-1.27979 -2.40755,-2.60433 -3.42857,-4.05674 -1.10707,-1.57105 -2.12939,-3.20026 -2.98989,-4.92128 -0.88051,-1.80042 -1.66795,-3.64451 -2.24246,-5.56811 -0.59252,-1.99788 -1.08199,-4.02657 -1.39926,-6.08777 -0.27706,-2.03008 -0.45204,-4.07037 -0.33432,-6.1216 0.066,-1.98956 0.2407,-3.96859 0.53662,-5.93803 0.25118,-1.85132 0.5146,-3.70136 0.83753,-5.541743 0.27759,-1.545497 0.57178,-3.0909 1.01117,-4.600173 0.30468,-0.995835 0.62043,-1.998681 1.16915,-2.892532 1.77825,-2.705815 5.61012,-5.615489 8.8912,-4.671688 0.73718,0.370519 1.32954,0.914995 1.8078,1.589384 0.73892,1.05951 1.26736,2.236621 1.64842,3.470658 0.45202,1.55658 0.77165,3.14926 0.8882,4.768594 0.12768,1.801148 0.16424,3.608296 0.0137,5.41008 -0.16698,1.95224 -0.38971,3.90276 -0.81475,5.81811 -0.43026,1.97364 -0.9908,3.91223 -1.83173,5.75521 -0.80571,1.87931 -1.64983,3.74508 -2.61795,5.54722 -0.96051,1.74637 -1.93448,3.48822 -3.05605,5.13797 -1.04056,1.55853 -2.1195,3.09265 -3.29237,4.55531 -1.03729,1.24759 -2.14172,2.43885 -3.35778,3.51573 -3.25784,2.74309 -7.02008,4.73984 -10.81067,6.6989 -1.1616,0.56358 -2.36389,1.03288 -3.6426,1.25457 -1.24151,0.19244 -2.4979,0.23769 -3.73991,0.006 -1.26577,-0.27273 -2.46864,-0.73092 -3.56488,-1.43094 -1.18046,-0.75344 -2.26821,-1.63072 -3.15468,-2.72476 -0.96866,-1.20117 -1.81116,-2.48869 -2.42707,-3.90982 -0.6909,-1.55648 -1.2852,-3.15194 -1.67045,-4.81454 -0.41559,-1.77238 -0.73111,-3.56549 -0.84136,-5.38562 -0.1397,-1.76082 -0.2102,-3.52688 -0.12139,-5.29282 0.0524,-1.64701 0.10964,-3.29386 0.17518,-4.94039 0.0652,-1.60053 0.13281,-3.20098 0.2143,-4.80078 0.076,-1.48082 0.15997,-2.96125 0.25567,-4.44093 0.0735,-1.11963 0.13094,-2.239821 0.19628,-3.359928 0.29752,-4.198877 0.50369,-2.501627 7.72902,-6.09958 0.36736,0.525499 0.41505,1.122491 0.42677,1.757771 0.0683,1.427355 0.11512,2.855638 0.15441,4.284064 0.0407,1.763443 0.0633,3.528403 -0.1661,5.282283 -0.20786,1.66865 -0.45905,3.33086 -0.76771,4.98415 -0.29939,1.62473 -0.60002,3.2536 -1.11646,4.82664 -0.47199,1.54187 -0.96751,3.07683 -1.54706,4.58229 -0.57426,1.49144 -1.18856,2.96888 -1.8936,4.40389 -0.70363,1.41453 -1.43462,2.81846 -2.30887,4.13699 -0.84925,1.2547 -1.69966,2.51647 -2.70499,3.65356 -0.96867,1.08688 -1.98161,2.14216 -3.09952,3.07743 -3.18412,2.63377 -6.96172,4.48267 -10.67467,6.27298 -1.15094,0.4838 -2.33133,0.9217 -3.59157,0.99115 -1.18234,0.0511 -2.3508,-0.0572 -3.4627,-0.49516 -1.19875,-0.51913 -2.26046,-1.25801 -3.09869,-2.2727 -1.02705,-1.27385 -1.86577,-2.66137 -2.4425,-4.1999 -0.69761,-1.76131 -1.27256,-3.56827 -1.70067,-5.41485 -0.45571,-1.99783 -0.82469,-4.01469 -0.98669,-6.06018 -0.14653,-1.99341 -0.27281,-3.98946 -0.34011,-5.98718 -0.0366,-2.02829 -0.0369,-4.05654 -0.0317,-6.08514 0,-2.08175 0,-4.16351 0,-6.24527 0,-2.10033 0,-4.20067 0,-6.301011 0,-2.099377 0,-4.198754 0,-6.29813 0,-2.000238 0,-4.000475 0,-6.000712 0,-1.828192 0,-3.656384 0,-5.484576 0,-1.649406 0,-3.298812 0,-4.948218 0,-1.333082 0,-2.666164 0,-3.999246 0,-0.932427 0,-1.864854 0,-2.797281 0,-0.573121 0,-1.146242 0,-1.719363 0,0 7.63719,-3.891347 7.63719,-3.891347 z"
           inkscape:connector-curvature="0"
           transform="translate(0,796.36218)" />
        <path
           style="fill:#e9ddaf;fill-opacity:1;stroke:#ff00ff;stroke-width:0;stroke-miterlimit:4;stroke-opacity:1;stroke-dasharray:none"
           id="path3606"
           d="m 732.87704,71.980519 c 0.45266,-0.134236 0.92686,-0.176585 1.39388,-0.233985 0.66143,-0.155422 1.32347,-0.305398 1.99134,-0.432681 0.94696,-0.160356 1.90124,-0.271314 2.85635,-0.369517 1.2233,-0.123419 2.44895,-0.2218 3.67473,-0.316672 1.43091,-0.123455 2.86569,-0.165519 4.3008,-0.202052 1.62458,-0.04497 3.24988,-0.0118 4.87389,0.03713 1.75521,0.03294 3.48615,0.278707 5.19917,0.64611 1.42072,0.333812 2.85927,0.769324 3.97729,1.740052 0.47328,0.877579 0.33954,1.085252 -0.29005,1.779418 0,0 -7.99971,3.077982 -7.99971,3.077982 l 0,0 c 0.1226,-0.02511 1.09027,-0.06795 1.03141,-0.298249 -1.10106,-0.789358 -2.44758,-1.11425 -3.75243,-1.40028 -1.68819,-0.319662 -3.394,-0.503862 -5.11381,-0.525788 -1.615,-0.03936 -3.23107,-0.05268 -4.84597,0.0013 -1.42688,0.0441 -2.85247,0.113241 -4.27494,0.23724 -1.22073,0.09908 -2.44145,0.201191 -3.6586,0.33845 -0.9413,0.112641 -1.88307,0.232884 -2.8112,0.429668 -0.67164,0.142264 -1.33884,0.31446 -2.02225,0.391619 -0.46536,0.07273 -0.92494,0.179704 -1.39214,0.236303 0,0 6.86224,-5.136046 6.86224,-5.136046 z"
           inkscape:connector-curvature="0"
           transform="translate(0,796.36218)" />
        <path
           style="fill:#e9ddaf;fill-opacity:1;stroke:#ff00ff;stroke-width:0;stroke-miterlimit:4;stroke-opacity:1;stroke-dasharray:none"
           id="path3608"
           d="m 788.49255,96.376222 c -0.5075,0.004 -1.01505,-0.01566 -1.52127,0.024 -0.80186,0.151816 -1.58446,0.39044 -2.36058,0.63951 -3.05557,1.1028 -8.16504,4.439118 4.57546,-2.884009 -1.01526,0.590547 -1.87082,1.385845 -2.68072,2.22606 -0.83402,0.889425 -1.54598,1.881184 -2.20267,2.905663 -0.73881,1.135484 -1.26087,2.380154 -1.71432,3.650654 -0.53525,1.4843 -0.69264,3.0573 -0.85073,4.61594 -0.19165,1.74536 -0.18661,3.49849 -0.10292,5.24942 0.12878,1.82893 0.4094,3.64272 0.7431,5.44412 0.35606,1.80271 0.90689,3.55773 1.57398,5.26741 0.70132,1.72302 1.688,3.30523 2.75144,4.82388 1.04257,1.4618 2.2389,2.80435 3.49434,4.08473 1.16184,1.2054 2.45801,2.25345 3.87727,3.13713 1.24811,0.78571 2.6216,1.26507 4.05385,1.57614 1.30498,0.27851 2.63281,0.22113 3.93612,-0.0199 1.35439,-0.27948 2.62136,-0.85991 3.83684,-1.50367 -12.77338,7.479 -6.35484,3.8671 -3.68232,1.73147 1.16237,-0.93814 2.15691,-2.05205 3.0879,-3.21385 0.9576,-1.20531 1.75725,-2.52291 2.52068,-3.85633 0.79069,-1.37205 1.42487,-2.82185 2.01332,-4.28927 0.63189,-1.50473 0.99749,-3.09322 1.2435,-4.70077 0.2115,-1.62108 0.13105,-3.25044 -0.1366,-4.85726 -0.31393,-1.62546 -1.12227,-3.05488 -1.99533,-4.43591 -0.9165,-1.39481 -1.98773,-2.67412 -3.12184,-3.89475 -1.08809,-1.16036 -2.28168,-2.21432 -3.5465,-3.17686 -1.23497,-0.9549 -2.62068,-1.63539 -4.08391,-2.15576 -1.4681,-0.4985 -2.9832,-0.81015 -4.51733,-1.01258 -1.59314,-0.20322 -3.19544,-0.16408 -4.79161,-0.0375 -1.17005,0.1614 -0.58088,0.0677 -1.76724,0.28269 0,0 6.85265,-5.14884 6.85265,-5.14884 l 0,0 c 1.21838,-0.17441 0.61288,-0.10269 1.81631,-0.216722 1.63501,-0.0825 3.27521,-0.06557 4.89729,0.184222 1.57113,0.255183 3.1255,0.609295 4.6212,1.163434 1.51114,0.599064 2.94197,1.359682 4.22347,2.369976 1.28584,1.00987 2.51036,2.09677 3.6217,3.29837 1.16205,1.26505 2.26034,2.58936 3.20191,4.02934 0.92997,1.47529 1.78399,3.00417 2.15769,4.72749 0.30947,1.68245 0.43344,3.38627 0.25804,5.09452 -0.20623,1.66415 -0.53969,3.31896 -1.15565,4.88469 -0.57889,1.49772 -1.18415,2.98783 -1.96565,4.39403 -0.74639,1.36985 -1.53822,2.72114 -2.46842,3.97572 -0.91343,1.20788 -1.87624,2.38152 -3.01619,3.38621 -3.28895,2.82011 -7.14146,4.77083 -10.96228,6.82623 -1.27728,0.59205 -2.59689,1.11483 -4.00533,1.2858 -1.38441,0.13506 -2.77068,0.11673 -4.12514,-0.24299 -1.48865,-0.39966 -2.91483,-0.96374 -4.21114,-1.81214 -1.44732,-0.95173 -2.78225,-2.05 -3.98148,-3.30337 -1.27894,-1.32146 -2.50173,-2.70141 -3.56601,-4.20421 -1.09823,-1.57619 -2.11692,-3.21731 -2.8517,-4.9988 -0.69482,-1.75555 -1.26871,-3.5582 -1.65136,-5.40929 -0.35033,-1.83493 -0.63968,-3.68261 -0.79614,-5.54522 -0.10311,-1.78787 -0.13588,-3.57931 0.0447,-5.36435 0.15209,-1.61122 0.27659,-3.2427 0.7641,-4.79536 0.43369,-1.31931 0.90944,-2.6306 1.63631,-3.822 0.63001,-1.07548 1.33126,-2.10651 2.13608,-3.060354 0.78932,-0.889658 1.60429,-1.766482 2.59595,-2.436217 3.31767,-1.928372 6.47642,-4.358846 10.20058,-5.454391 0.8145,-0.2259 1.63894,-0.463452 2.49147,-0.465402 0.51319,0.0018 1.02639,9.78e-4 1.53958,0.0011 0,0 -6.93443,5.038159 -6.93443,5.038159 z"
           inkscape:connector-curvature="0"
           transform="translate(0,796.36218)" />
        <path
           style="fill:#e9ddaf;fill-opacity:1;stroke:#ff00ff;stroke-width:0;stroke-miterlimit:4;stroke-opacity:1;stroke-dasharray:none"
           id="path3610"
           d="m 561.56467,84.195206 c 1.01403,0 2.02806,0 3.04209,0 2.36384,0 4.72768,0 7.09152,0 3.80443,0 7.60886,0 11.41329,0 4.96072,0 9.92144,0 14.88216,0 5.25825,-0.0057 10.51655,0.01329 15.77475,-0.01297 5.00394,-0.03864 10.00607,-0.133887 15.00526,-0.356291 3.22994,-0.155732 1.61866,-0.07686 4.83384,-0.23658 0,0 -6.90948,5.072327 -6.90948,5.072327 l 0,0 c -3.21685,0.158031 -1.60449,0.08062 -4.83708,0.232167 -5.00588,0.207842 -10.01474,0.294987 -15.02475,0.32959 -5.25896,0.02006 -10.51798,0.0056 -15.77697,0.0099 -4.96072,0 -9.92144,0 -14.88216,0 -3.80443,0 -7.60886,0 -11.41329,0 -2.36384,0 -4.72768,0 -7.09152,0 -1.01403,0 -2.02806,0 -3.04209,0 0,0 6.93443,-5.038159 6.93443,-5.038159 z"
           inkscape:connector-curvature="0"
           transform="translate(0,796.36218)" />
      </g>
      <g
         id="g3631">
        <path
           style="fill:#e9ddaf;fill-opacity:1;stroke:#ff00ff;stroke-width:0;stroke-miterlimit:4;stroke-opacity:1;stroke-dasharray:none"
           id="path3570"
           d="m 138.85315,48.692425 c -0.14502,0.202679 -0.29209,0.403594 -0.4404,0.603817 -0.21207,0.309205 -0.42062,0.620927 -0.62996,0.932046 -0.30002,0.436569 -0.60071,0.872746 -0.90447,1.306747 -0.40606,0.576292 -0.80867,1.154991 -1.21453,1.731422 -0.54213,0.7624 -1.07468,1.531517 -1.61164,2.297536 -0.71241,1.024746 -1.452,2.030028 -2.19409,3.033342 -0.90457,1.216581 -1.82237,2.423221 -2.73276,3.635429 -0.9827,1.301718 -1.94175,2.620871 -2.88916,3.948406 -1.00672,1.415026 -1.99326,2.844299 -2.97959,4.27357 -1.02006,1.483942 -2.03921,2.968512 -3.05385,4.456166 -1.0209,1.497278 -2.03933,2.996238 -3.0627,4.491839 -1.03261,1.509396 -2.06207,3.020953 -3.09441,4.530536 -1.05886,1.544101 -2.12139,3.085677 -3.18333,4.627655 -1.08,1.570397 -2.14974,3.147797 -3.21324,4.729398 -1.0773,1.607271 -2.15912,3.211504 -3.24249,4.814685 -1.09844,1.626101 -2.18836,3.257941 -3.27962,4.888871 -1.10696,1.65653 -2.223128,3.30687 -3.345498,4.95299 -1.143341,1.66986 -2.284734,3.34103 -3.422017,5.01503 -1.141483,1.67756 -2.282471,3.35547 -3.426525,5.03128 -1.137464,1.66925 -2.27821,3.33626 -3.419042,5.00321 -1.151854,1.67923 -2.300041,3.36097 -3.453155,5.03934 -1.173929,1.70651 -2.362937,3.40261 -3.556824,5.09521 -1.206078,1.70556 -2.425556,3.40158 -3.643128,5.09894 -1.218398,1.70741 -2.460009,3.39802 -3.704525,5.08643 -1.249,1.69439 -2.507864,3.38146 -3.76951,5.06645 -1.262489,1.68641 -2.533986,3.36605 -3.804439,5.04646 -1.262208,1.67294 -2.529274,3.3422 -3.794012,5.01323 -1.253606,1.66284 -2.510785,3.32299 -3.768999,4.98235 -1.261813,1.65604 -2.509461,3.32279 -3.760735,4.98678 -1.264938,1.67746 -2.527208,3.35692 -3.786725,5.03844 -1.264849,1.68902 -2.523804,3.38242 -3.77966,5.07813 -1.254731,1.70526 -2.505705,3.41329 -3.757899,5.12042 -0.828267,1.1307 -1.652388,2.26443 -2.476113,3.39845 0,0 -7.866396,3.40429 -7.866396,3.40429 l 0,0 c 0.823863,-1.1347 1.647353,-2.26967 2.47462,-3.4019 1.251323,-1.70858 2.506482,-3.41436 3.756348,-5.12401 1.254966,-1.69739 2.513483,-3.39214 3.777713,-5.08264 1.259401,-1.682 2.519492,-3.36348 3.785988,-5.04015 1.252292,-1.66394 2.498096,-3.33279 3.759372,-4.98995 1.258869,-1.65866 2.517254,-3.3177 3.769381,-4.98147 1.264595,-1.67098 2.531469,-3.34023 3.794303,-5.01255 1.268936,-1.68086 2.542881,-3.35795 3.805769,-5.04337 1.262269,-1.6832 2.522212,-3.36815 3.772018,-5.06064 1.245042,-1.6856 2.490085,-3.37133 3.709058,-5.07595 1.217346,-1.69627 2.436624,-3.39116 3.645491,-5.09349 1.196594,-1.68829 2.383881,-3.38323 3.561293,-5.08494 1.154294,-1.67722 2.302492,-3.3586 3.453805,-5.03785 1.14178,-1.6661 2.28235,-3.33303 3.419417,-5.00235 1.145087,-1.67462 2.28526,-3.35258 3.42744,-5.02919 1.137365,-1.67439 2.275421,-3.3483 3.421159,-5.01698 1.124181,-1.64317 2.241645,-3.2909 3.34871,-4.94566 1.092199,-1.63107 2.181184,-3.2643 3.278183,-4.89215 1.082415,-1.603305 2.167141,-3.205056 3.243451,-4.812475 1.062143,-1.584633 2.130613,-3.164991 3.209303,-4.738421 1.06058,-1.542451 2.1241,-3.082886 3.18419,-4.625673 1.03355,-1.508833 2.0633,-3.020261 3.09428,-4.53085 1.02474,-1.494246 2.04379,-2.992355 3.06348,-4.490037 1.01425,-1.48876 2.03223,-2.97495 3.0523,-4.45972 0.98413,-1.433526 1.97353,-2.863593 2.97443,-4.285443 0.94433,-1.333895 1.89592,-2.662839 2.88111,-3.96701 0.90395,-1.216575 1.82559,-2.419855 2.73365,-3.633364 0.74402,-0.997025 1.48699,-1.99515 2.20311,-3.012507 0.53889,-0.765222 1.07129,-1.534873 1.61069,-2.299743 0.40772,-0.574621 0.8122,-1.15146 1.2155,-1.729184 0.30432,-0.431534 0.60666,-0.864422 0.90842,-1.297676 0.21454,-0.307227 0.42817,-0.615582 0.6304,-0.931033 0.13511,-0.213914 0.27952,-0.421405 0.43184,-0.623498 0,0 7.86522,-3.407021 7.86522,-3.407021 z"
           inkscape:connector-curvature="0"
           transform="translate(0,796.36218)" />
        <path
           style="fill:#e9ddaf;fill-opacity:1;stroke:#ff00ff;stroke-width:0;stroke-miterlimit:4;stroke-opacity:1;stroke-dasharray:none"
           id="path3572"
           d="m 140.96146,50.590556 c 0,0.203652 0,0.407305 0,0.610957 -10e-4,0.290703 0.002,0.581422 -0.002,0.872094 -0.003,0.422423 -0.027,0.843889 -0.0528,1.265388 -0.0342,0.547776 -0.0629,1.095872 -0.0902,1.644033 -0.0342,0.669359 -0.0718,1.33857 -0.11362,2.007498 -0.0499,0.766814 -0.0963,1.53385 -0.14053,2.301009 -0.0508,0.856976 -0.10656,1.713649 -0.15928,2.570509 -0.0554,0.906904 -0.13081,1.81242 -0.20106,2.718253 -0.0751,0.96584 -0.14435,1.932116 -0.21174,2.898518 -0.071,1.02969 -0.13768,2.059678 -0.20274,3.089761 -0.0675,1.075892 -0.12965,2.152101 -0.19889,3.227883 -0.0746,1.132479 -0.14525,2.265206 -0.21439,3.398027 -0.0718,1.188522 -0.14174,2.377164 -0.20495,3.566176 -0.0665,1.246371 -0.11198,2.493691 -0.15665,3.740992 -0.0456,1.295218 -0.0884,2.590534 -0.13065,3.885867 -0.043,1.320539 -0.0843,2.641135 -0.12456,3.961759 -0.0404,1.356638 -0.0823,2.713238 -0.1174,4.070024 -0.0353,1.389937 -0.0586,2.780101 -0.0774,4.170346 -0.0254,1.42854 -0.0245,2.85728 -0.0222,4.28598 6.2e-4,1.46016 0.008,2.92027 0.0207,4.38037 0.0129,1.48022 0.0256,2.96044 0.046,4.44059 0.0221,1.50336 0.0455,3.00671 0.0683,4.51006 0.0204,1.51508 0.0463,3.03005 0.0767,4.54495 0.0314,1.5275 0.0626,3.05501 0.0934,4.58252 0.027,1.54883 0.0617,3.09741 0.11166,4.64568 0.0579,1.58636 0.11133,3.17288 0.15565,4.75968 0.0271,1.06128 0.0132,0.53095 0.0416,1.59101 0,0 -7.62659,3.91211 -7.62659,3.91211 l 0,0 c -0.0294,-1.06119 -0.0155,-0.53081 -0.0416,-1.59113 -0.0415,-1.58527 -0.0938,-3.17022 -0.1532,-4.75492 -0.0533,-1.55157 -0.0915,-3.10348 -0.11684,-4.65577 -0.0306,-1.52747 -0.0617,-3.05493 -0.0933,-4.58238 -0.0309,-1.51621 -0.0595,-3.03245 -0.0787,-4.54886 -0.0227,-1.5036 -0.0459,-3.00719 -0.0686,-4.51078 -0.0216,-1.48154 -0.0359,-2.96314 -0.0482,-4.44479 -0.013,-1.46183 -0.0235,-2.92367 -0.0234,-4.38557 -0.003,-1.43251 -0.009,-2.8651 0.0164,-4.29747 0.0179,-1.39317 0.0383,-2.78628 0.0729,-4.17916 0.0319,-1.358291 0.0757,-2.716268 0.1152,-4.074358 0.04,-1.321161 0.081,-2.642291 0.12376,-3.963363 0.042,-1.296097 0.0846,-2.592174 0.12948,-3.888174 0.044,-1.251292 0.0863,-2.502712 0.15051,-3.753173 0.0593,-1.191523 0.13097,-2.38238 0.20138,-3.573287 0.0686,-1.133882 0.13817,-2.267707 0.21279,-3.40121 0.0704,-1.075166 0.13476,-2.150678 0.19974,-3.226186 0.0642,-1.031741 0.13055,-2.063351 0.20025,-3.094739 0.0666,-0.96842 0.13469,-1.936739 0.20868,-2.904624 0.0694,-0.901971 0.14418,-1.803554 0.2072,-2.705989 0.052,-0.855864 0.10551,-1.711636 0.1609,-2.567291 0.0432,-0.768854 0.0878,-1.537638 0.13799,-2.306071 0.043,-0.665128 0.0819,-1.330447 0.11944,-1.995906 0.0259,-0.551304 0.053,-1.102564 0.0854,-1.653535 0.0249,-0.412062 0.0615,-0.823533 0.0674,-1.236415 0.009,-0.284859 0.0147,-0.569533 0.0109,-0.854588 0,-0.203653 0,-0.407306 0,-0.610958 0,0 7.6372,-3.891347 7.6372,-3.891347 z"
           inkscape:connector-curvature="0"
           transform="translate(0,796.36218)" />
        <path
           style="fill:#e9ddaf;fill-opacity:1;stroke:#ff00ff;stroke-width:0;stroke-miterlimit:4;stroke-opacity:1;stroke-dasharray:none"
           id="path3576"
           d="m 106.44227,90.623777 c 0.35684,0 0.71367,0 1.07051,0 0.5325,0 1.06499,0 1.59749,0 0.64237,0 1.28474,0 1.92711,0 0.746,0 1.49199,0 2.23799,0 0.86094,0 1.72187,0 2.58281,0 0.9523,0 1.90461,0 2.85691,0 1.04679,-0.0046 2.0935,0.0045 3.14023,0.01369 1.14117,0.01023 2.28235,0.01993 3.42353,0.02939 1.20891,0.01004 2.41782,0.01937 3.62673,0.02843 1.29958,0.0097 2.59915,0.01854 3.89873,0.0272 1.37506,0.0091 2.75012,0.01775 4.12519,0.02612 1.45252,0.0088 2.90505,0.01699 4.35757,0.025 1.532,0.0084 3.064,0.01627 4.59601,0.02395 1.60993,0.0081 3.21986,0.0156 4.82979,0.02294 1.68264,0.0077 3.36529,0.01489 5.04793,0.022 1.73524,0.0073 3.47048,0.01427 5.20571,0.02107 1.79114,0.007 3.58228,0.01364 5.37342,0.02018 1.84633,0.0067 3.69267,0.01306 5.53901,0.01932 1.87744,0.0063 3.75488,0.01249 5.63232,0.01852 1.91711,0.0062 3.83423,0.01198 5.75134,0.01771 1.98136,7.15e-4 3.96269,-0.0053 5.94401,-0.01788 2.05462,-0.02032 4.10924,-0.04121 6.1636,-0.08035 2.09286,-0.0365 4.18495,-0.104822 6.27689,-0.175159 2.10984,-0.073 4.2183,-0.179804 6.3266,-0.28744 2.12301,-0.121803 4.24516,-0.258757 6.36625,-0.410199 1.76506,-0.125887 3.52735,-0.286952 5.2879,-0.46429 0,0 -6.8848,5.105779 -6.8848,5.105779 l 0,0 c -1.76557,0.168843 -3.53244,0.324687 -5.30207,0.445119 -2.12445,0.146431 -4.24959,0.284378 -6.37615,0.39675 -2.11116,0.1059 -4.22265,0.207331 -6.33544,0.275382 -2.0945,0.06838 -4.18924,0.130786 -6.28464,0.164545 -2.05639,0.03399 -4.11298,0.0561 -6.16959,0.07212 -1.98281,0.01086 -3.96566,0.01526 -5.9485,0.0117 -1.91715,-0.0058 -3.83431,-0.01166 -5.75146,-0.01787 -1.87747,-0.0061 -3.75494,-0.01225 -5.63241,-0.01864 -1.84638,-0.0063 -3.69276,-0.01272 -5.53914,-0.0195 -1.79118,-0.0066 -3.58237,-0.01329 -5.37355,-0.02037 -1.73529,-0.0069 -3.47058,-0.01387 -5.20587,-0.02128 -1.6827,-0.0072 -3.3654,-0.01448 -5.0481,-0.02224 -1.61001,-0.0075 -3.22002,-0.01509 -4.83003,-0.02326 -1.53209,-0.0078 -3.06417,-0.01574 -4.59626,-0.02431 -1.45262,-0.0081 -2.90525,-0.01644 -4.35787,-0.0254 -1.37516,-0.0085 -2.75032,-0.01723 -4.12548,-0.02653 -1.29972,-0.0088 -2.59944,-0.01787 -3.89915,-0.02779 -1.20905,-0.0092 -2.41809,-0.0188 -3.62713,-0.02898 -1.14115,-0.0096 -2.2823,-0.01969 -3.42345,-0.02927 -1.04535,-0.0079 -2.09071,-0.0098 -3.1361,-0.008 -0.9523,0 -1.90461,0 -2.85692,0 -0.86093,0 -1.72187,0 -2.5828,0 -0.746,0 -1.49199,0 -2.23799,0 -0.64237,0 -1.28474,0 -1.92711,0 -0.5325,0 -1.065,0 -1.59749,0 -0.35684,0 -0.713676,0 -1.070511,0 0,0 6.934431,-5.03816 6.934431,-5.03816 z"
           inkscape:connector-curvature="0"
           transform="translate(0,796.36218)" />
        <path
           style="fill:#e9ddaf;fill-opacity:1;stroke:#ff00ff;stroke-width:0;stroke-miterlimit:4;stroke-opacity:1;stroke-dasharray:none"
           id="path3590"
           d="m 175.24717,55.654546 c 0,0.639046 0,1.278091 0,1.917137 0,1.142065 0,2.284129 0,3.426194 0,1.599439 0,3.198878 0,4.798318 0,1.850334 0,3.700669 0,5.551004 0,2.012638 0,4.025277 0,6.037916 0,2.142339 0,4.284678 0,6.427017 0,2.119782 0,4.239563 0,6.359344 0,2.065078 0,4.130155 0,6.195233 0,2.064827 0,4.129651 0,6.194481 0,2.0618 0,4.1236 0,6.1854 -0.009,2.02305 -0.0252,4.04447 0.1131,6.06359 0.13303,2.04744 0.47616,4.06953 0.88186,6.07789 0.37152,1.91325 0.96645,3.76586 1.67221,5.57884 0.6727,1.70258 1.58797,3.28106 2.59138,4.80563 0.93437,1.39038 1.98265,2.70013 3.21228,3.83886 1.11212,0.98374 2.38818,1.52984 3.87143,1.4656 0.82778,-0.11776 1.62279,-0.39965 2.3621,-0.78815 0.29355,-0.15425 1.14364,-0.67175 0.85454,-0.50931 -6.60769,3.71282 -8.42021,5.13392 -5.46312,2.91911 2.47959,-1.95769 4.43493,-4.42075 6.24143,-6.98652 0.32604,-0.49016 0.65209,-0.98032 0.97813,-1.47048 0,0 7.85073,-3.44028 7.85073,-3.44028 l 0,0 c -0.32343,0.49616 -0.64685,0.99232 -0.97028,1.48847 -1.7852,2.62597 -3.69646,5.16444 -6.14344,7.22097 -3.33415,2.77983 -0.9842,0.90593 -9.17354,5.63956 -1.05977,0.61257 -2.27379,0.93485 -3.4935,0.93365 -1.61236,-0.19831 -3.01651,-0.8535 -4.20994,-1.9731 -1.25471,-1.20626 -2.34935,-2.5614 -3.31502,-4.00987 -1.0337,-1.57564 -1.97798,-3.20594 -2.67986,-4.96053 -0.73039,-1.8547 -1.35279,-3.74933 -1.74271,-5.7079 -0.42189,-2.03991 -0.78636,-4.09367 -0.9328,-6.17454 -0.16295,-2.03738 -0.15919,-4.07715 -0.14218,-6.12014 0,-2.0618 0,-4.1236 0,-6.1854 0,-2.06483 0,-4.12966 0,-6.19448 0,-2.065082 0,-4.130159 0,-6.195237 0,-2.119781 0,-4.239562 0,-6.359344 0,-2.142339 0,-4.284678 0,-6.427017 0,-2.012639 0,-4.025278 0,-6.037916 0,-1.850335 0,-3.70067 0,-5.551004 0,-1.59944 0,-3.198879 0,-4.798318 0,-1.142065 0,-2.284129 0,-3.426194 0,-0.639046 0,-1.278091 0,-1.917137 0,0 7.6372,-3.891347 7.6372,-3.891347 z"
           inkscape:connector-curvature="0"
           transform="translate(0,796.36218)" />
        <path
           style="fill:#e9ddaf;fill-opacity:1;stroke:#ff00ff;stroke-width:0;stroke-miterlimit:4;stroke-opacity:1;stroke-dasharray:none"
           id="path3594"
           d="m 242.06398,95.661937 c -0.76518,-0.06691 -1.53165,-0.12864 -2.29828,-0.182879 -1.33087,-0.09064 -2.66327,-0.156498 -3.99561,-0.220996 -1.49336,-0.09316 -2.98599,-0.131349 -4.48124,-0.07763 -1.61959,0.04146 -3.20488,0.362129 -4.77415,0.738956 -1.65328,0.403946 -3.22918,1.066571 -4.74349,1.833676 -3.15383,1.862921 1.01399,-0.603035 5.85543,-3.35053 0.24558,-0.13937 -0.47983,0.297934 -0.71675,0.451573 -0.71504,0.463678 -1.39301,0.962339 -2.06372,1.487268 -1.35471,1.087344 -2.51749,2.375819 -3.59751,3.729255 -1.06101,1.33122 -1.93902,2.78738 -2.7273,4.29209 -0.74853,1.44933 -1.25792,2.99625 -1.69289,4.56286 -0.46602,1.58612 -0.69988,3.21588 -0.82169,4.86005 -0.12746,1.67688 0.0709,3.32547 0.47107,4.95052 0.43078,1.69288 1.27124,3.21755 2.22061,4.66755 1.03987,1.56724 2.31684,2.94219 3.64247,4.26714 1.30166,1.30792 2.74404,2.45702 4.22834,3.54791 1.41571,1.06685 2.97322,1.91256 4.59934,2.60781 1.60884,0.62261 3.30504,0.73224 5.00745,0.61349 1.75615,-0.15 3.40921,-0.73683 5.00345,-1.45424 -2.25614,1.52429 4.76148,-2.66454 2.4021,-1.31794 -11.61662,6.63012 -7.49682,4.50228 -5.01771,2.67809 1.51427,-1.1438 2.87843,-2.46173 4.16816,-3.84907 1.27163,-1.37863 2.40891,-2.86995 3.50458,-4.38957 1.00972,-1.42143 1.83664,-2.95813 2.52439,-4.55738 0.59124,-1.45311 0.95094,-2.97916 1.17621,-4.5273 0.20451,-1.42501 0.0983,-2.85925 -0.11966,-4.27412 -0.20644,-1.36184 -0.65503,-2.6592 -1.20988,-3.91385 -0.53706,-1.19482 -1.26211,-2.28068 -2.05327,-3.31879 -0.80375,-1.01636 -1.77665,-1.85115 -2.82603,-2.59981 -0.98512,-0.67693 -2.06364,-1.19025 -3.18954,-1.58204 0,0 7.11024,-4.786837 7.11024,-4.786837 l 0,0 c 1.16926,0.466263 2.29511,1.036422 3.31721,1.777347 1.0974,0.816978 2.11138,1.73094 2.95703,2.81315 0.82521,1.0942 1.58234,2.23742 2.15174,3.48893 0.59126,1.31685 1.0791,2.67821 1.3159,4.1078 0.2541,1.48409 0.40385,2.99309 0.23368,4.49705 -0.19016,1.61037 -0.5182,3.19901 -1.0822,4.72419 -0.63687,1.66551 -1.45949,3.25056 -2.44283,4.73951 -1.085,1.54714 -2.20588,3.07158 -3.46421,4.48414 -1.272,1.42904 -2.60837,2.79918 -4.10985,3.99156 -3.6649,2.91331 -7.86701,5.09811 -12.0742,7.12546 -1.66494,0.65486 -3.3888,1.15271 -5.19065,1.20805 -1.79527,0.013 -3.57093,-0.20204 -5.23078,-0.93346 -1.6578,-0.76108 -3.24968,-1.65531 -4.70202,-2.76607 -1.50881,-1.12633 -2.97108,-2.31569 -4.29638,-3.65715 -1.35939,-1.37267 -2.66352,-2.80107 -3.73255,-4.41765 -0.99651,-1.53032 -1.88346,-3.13735 -2.35928,-4.91396 -0.44375,-1.70057 -0.69762,-3.42473 -0.59527,-5.18885 0.0955,-1.6919 0.28373,-3.37628 0.7471,-5.01258 0.42135,-1.6128 0.89175,-3.21478 1.61934,-4.72125 0.75462,-1.55607 1.61335,-3.06237 2.66102,-4.44252 1.05598,-1.40643 2.19004,-2.75309 3.52267,-3.909312 3.46195,-2.945553 7.60233,-4.984594 11.57863,-7.131992 1.56448,-0.711375 3.17465,-1.329915 4.86249,-1.68091 1.60637,-0.339203 3.22875,-0.59505 4.8755,-0.602999 1.50773,-0.01838 3.01288,0.04445 4.51817,0.1286 1.33664,0.06767 2.67334,0.137566 4.00798,0.238231 0.75205,0.05862 1.50652,0.13375 2.26107,0.131272 0,0 -6.93443,5.03816 -6.93443,5.03816 z"
           inkscape:connector-curvature="0"
           transform="translate(0,796.36218)" />
        <path
           style="fill:#e9ddaf;fill-opacity:1;stroke:#ff00ff;stroke-width:0;stroke-miterlimit:4;stroke-opacity:1;stroke-dasharray:none"
           id="path3620"
           d="m 243.49203,91.784279 c 3.28941,-1.789948 -27.34852,14.879891 -6.95237,4.015567 2.48719,-1.32484 5.45938,-3.506333 8.40177,-4.71533 0.70295,-0.284522 1.42841,-0.506487 2.1571,-0.713939 0.85672,-0.244732 1.72937,-0.424182 2.60312,-0.595242 1.02224,-0.221459 2.06386,-0.306738 3.10541,-0.37109 1.18744,-0.106024 2.37793,-0.06173 3.56736,-0.03186 1.33321,-0.0044 2.65287,0.179244 3.96891,0.369184 1.3774,0.200828 2.73503,0.497571 4.07874,0.857496 1.4415,0.37477 2.82723,0.919536 4.19679,1.497828 1.4544,0.614707 2.84105,1.372349 4.19144,2.187065 1.28294,0.771456 2.43672,1.728486 3.52484,2.750906 1.06355,1.012067 1.90394,2.218587 2.65471,3.472306 0.73774,1.28609 1.25763,2.67652 1.71598,4.0816 0.46469,1.41158 0.72201,2.87464 0.91923,4.34367 0.18945,1.47803 0.21757,2.96604 0.19004,4.45351 -0.0428,1.50798 -0.16714,3.01185 -0.34255,4.50972 -0.21372,1.50578 -0.45297,3.00843 -0.73032,4.50384 -0.27178,1.47808 -0.74698,2.90015 -1.32264,4.28429 -0.48632,1.16308 -1.2014,2.19425 -2.0479,3.1202 -2.6846,2.4667 -5.83281,5.13792 -9.50595,5.54147 -0.80388,0.0432 -1.54458,-0.21281 -2.22363,-0.62336 -0.72029,-0.47194 -1.28013,-1.1406 -1.79186,-1.82361 -0.58659,-0.80103 -1.01636,-1.69891 -1.42835,-2.59788 -0.48054,-1.01729 -0.78502,-2.0961 -1.05139,-3.18484 -0.29643,-1.18017 -0.39289,-2.39101 -0.44979,-3.60212 -0.0505,-1.38644 0.0292,-2.77261 0.16588,-4.15181 0.16342,-1.58977 0.49885,-3.15364 0.86574,-4.70678 0.38825,-1.63982 0.89444,-3.24604 1.49519,-4.81942 0.57925,-1.4969 1.31923,-2.91955 2.13939,-4.2964 0.77347,-1.29414 1.71517,-2.47232 2.71125,-3.59961 0.97318,-1.08073 2.06593,-2.039156 3.19989,-2.945623 3.40168,-2.595212 7.31578,-4.52143 10.99386,-6.632638 1.31387,-0.747362 2.72371,-1.267676 4.16645,-1.700003 1.32293,-0.412099 2.6981,-0.506546 4.07409,-0.505834 1.30438,-9.7e-5 2.57502,0.306578 3.8189,0.669974 1.23453,0.385658 2.35099,1.029167 3.42219,1.73979 1.0874,0.789983 2.04334,1.736888 2.96352,2.711391 0.94598,1.031907 1.74615,2.18229 2.50105,3.357566 0.76618,1.205824 1.43448,2.469677 2.03084,3.766907 0.59974,1.32038 1.07608,2.68861 1.50488,4.07224 0.4226,1.41009 0.7278,2.84999 0.97473,4.29996 0.23521,1.49039 0.33479,2.99636 0.37242,4.50324 0.0161,1.61789 -0.18075,3.2253 -0.44729,4.81776 -0.2417,1.47337 -0.69379,2.89368 -1.2288,4.28326 -0.47398,1.19379 -1.18279,2.26127 -1.99907,3.24469 -2.53315,2.65609 -5.91435,4.68839 -9.38193,5.7898 -0.67975,0.21828 -1.31935,0.18571 -1.98549,-0.0404 -0.6345,-0.28316 -1.10482,-0.78769 -1.5399,-1.3127 -0.50977,-0.62803 -0.86293,-1.35548 -1.18603,-2.09133 -0.38445,-0.92376 -0.62407,-1.89532 -0.82351,-2.87285 -0.24044,-1.18909 -0.30128,-2.40427 -0.3448,-3.61363 -0.0509,-1.38541 -0.019,-2.77197 0.0694,-4.15498 0.0968,-1.49446 0.34567,-2.97147 0.61397,-4.44283 0.28185,-1.54209 0.71009,-3.05081 1.14259,-4.55578 0.43841,-1.54117 1.00036,-3.04201 1.60985,-4.52249 0.59762,-1.43934 1.31167,-2.82465 2.08784,-4.17466 0.72857,-1.27047 1.62445,-2.429429 2.57676,-3.537661 0.92798,-1.05066 1.9693,-1.990071 3.04144,-2.889704 1.04814,-0.88243 2.18625,-1.644013 3.34819,-2.365986 3.81325,-2.708229 7.11764,-4.49464 11.29453,-5.738237 1.39202,-0.406881 2.83415,-0.565478 4.27657,-0.649718 1.49765,-0.07087 2.99124,0.106857 4.46756,0.340562 1.46436,0.244263 2.85406,0.751914 4.19419,1.376417 1.29879,0.628031 2.53955,1.367249 3.74607,2.156034 1.16168,0.745166 2.17619,1.678018 3.13037,2.66794 0.92989,0.958405 1.65037,2.072617 2.29512,3.234208 0.6295,1.176903 1.06791,2.439989 1.4174,3.724223 0.34156,1.384252 0.48957,2.805372 0.59817,4.223882 0.10544,1.47488 0.14368,2.95181 0.12807,4.42997 -0.0238,1.51197 -0.0738,3.0234 -0.0909,4.53548 -0.0149,1.56847 0.0941,3.13181 0.26738,4.68946 0.19556,1.74641 0.58765,3.46033 1.06577,5.14858 0.52463,1.82531 1.26553,3.57635 2.06422,5.29587 0.86138,1.79924 1.99231,3.44847 3.2204,5.0137 1.27253,1.60157 2.71608,3.05073 4.23732,4.41375 1.60895,1.4603 3.36966,2.72755 5.20663,3.88164 2.0529,1.24549 4.22208,2.28057 6.45977,3.14495 2.34599,0.936 4.77699,1.37641 7.29298,1.30367 3.14768,-0.27425 5.95575,-1.72172 8.64764,-3.27042 -11.41199,6.86565 -4.89901,2.78426 -2.58904,0.99107 1.41811,-1.10086 1.7812,-1.44778 3.14557,-2.62949 0,0 7.94003,-3.22881 7.94003,-3.22881 l 0,0 c -4.62789,4.12082 -9.48566,7.51881 -15.16625,10.25096 -2.78518,1.49941 -5.68631,2.85002 -8.91131,2.92634 -2.5831,-0.0611 -5.08242,-0.58392 -7.47911,-1.57025 -2.26544,-0.91953 -4.47199,-1.98507 -6.549,-3.2808 -1.86081,-1.19946 -3.64756,-2.50663 -5.28343,-4.00327 -1.54594,-1.40761 -3.01808,-2.89618 -4.31443,-4.5406 -1.26067,-1.62195 -2.42593,-3.3258 -3.3182,-5.1821 -0.82052,-1.75809 -1.58222,-3.54851 -2.12935,-5.41313 -0.5016,-1.72831 -0.91595,-3.48359 -1.1322,-5.27285 -0.18969,-1.58807 -0.31783,-3.18164 -0.3154,-4.78245 0.005,-1.51388 0.0611,-3.02695 0.0883,-4.54054 0.0251,-1.45673 0.007,-2.91188 -0.0953,-4.36603 -0.0869,-1.36925 -0.22014,-2.74061 -0.52252,-4.08125 -0.3126,-1.22163 -0.72256,-2.42105 -1.31375,-3.53868 -0.60738,-1.096435 -1.29071,-2.143959 -2.17897,-3.038295 -0.92168,-0.936758 -1.90736,-1.807639 -3.02752,-2.503808 -1.18362,-0.752618 -2.39616,-1.465128 -3.67452,-2.046508 -1.30325,-0.556195 -2.64945,-0.996831 -4.06059,-1.181177 -1.44385,-0.190176 -2.90101,-0.320471 -4.35704,-0.187355 -1.41029,0.133807 -2.81216,0.353237 -4.16076,0.802972 -3.27977,1.055889 -9.38839,4.451093 3.48138,-2.593767 -1.17106,0.688516 -2.32862,1.405115 -3.39246,2.253704 -1.08414,0.86053 -2.13776,1.761479 -3.09212,2.766571 -0.97909,1.046147 -1.88792,2.162598 -2.64375,3.38266 -0.79656,1.310501 -1.52531,2.661143 -2.13531,4.069663 -0.62664,1.4478 -1.1996,2.92015 -1.65178,4.43276 -0.43851,1.48054 -0.87326,2.96513 -1.17903,4.47991 -0.27902,1.44227 -0.54146,2.89107 -0.65614,4.35732 -0.11604,1.3542 -0.14696,2.7151 -0.11048,4.07384 0.0319,1.16592 0.0685,2.33961 0.27967,3.48933 0.1765,0.92114 0.38376,1.8382 0.73493,2.71126 0.28487,0.66117 0.59153,1.31897 1.05959,1.87403 0.33837,0.38781 0.69967,0.77225 1.23645,0.84362 0.58454,0.0393 1.14482,-0.13259 1.66763,-0.38833 2.7071,-1.52637 -0.63439,0.35598 -6.66969,3.87591 -0.11764,0.0686 0.24389,-0.1217 0.36135,-0.19062 0.39174,-0.22986 0.74437,-0.51677 1.06492,-0.83767 0.85911,-0.87421 1.59038,-1.85858 2.12084,-2.96865 0.55832,-1.33283 1.04399,-2.6971 1.30482,-4.1232 0.28807,-1.54135 0.50101,-3.09864 0.52144,-4.66938 -0.017,-1.46928 -0.10341,-2.93736 -0.31485,-4.39273 -0.2265,-1.41596 -0.51817,-2.82066 -0.91992,-4.19829 -0.41235,-1.35024 -0.86782,-2.68653 -1.45052,-3.97449 -0.57439,-1.26254 -1.22542,-2.48966 -1.96996,-3.6609 -0.72741,-1.12927 -1.4988,-2.23486 -2.41822,-3.218694 -0.88209,-0.920918 -1.79654,-1.821204 -2.85607,-2.539661 -1.02452,-0.645298 -2.09679,-1.213459 -3.27649,-1.520419 -1.20356,-0.305984 -2.42649,-0.532398 -3.6754,-0.467297 -1.33675,0.06267 -2.65772,0.255396 -3.92577,0.702983 -1.41031,0.483642 -2.77226,1.080466 -4.06416,1.829377 12.81625,-7.416039 6.38526,-3.90172 3.63771,-1.92901 -1.14571,0.865644 -2.2606,1.772333 -3.25401,2.813446 -1.02144,1.067185 -1.97471,2.204305 -2.77667,3.447655 -0.84017,1.32888 -1.60647,2.70123 -2.2011,4.16002 -0.62509,1.53375 -1.15221,3.10251 -1.54539,4.71294 -0.37968,1.51888 -0.7278,3.0498 -0.91488,4.60606 -0.15719,1.34003 -0.24841,2.68745 -0.22362,4.03757 0.0421,1.15945 0.099,2.32175 0.37208,3.4547 0.24547,1.03835 0.51387,2.07147 0.97185,3.04077 0.38288,0.8428 0.77887,1.68766 1.33349,2.43413 0.44581,0.57983 0.9261,1.15956 1.58883,1.49868 0.61225,0.24692 1.22622,0.34089 1.86697,0.12039 0.22259,-0.0936 0.85592,-0.44666 0.64748,-0.32478 -12.47644,7.29504 -8.25223,5.18929 -5.87082,3.26681 0.89431,-0.80231 1.65096,-1.73515 2.17789,-2.8222 0.60067,-1.3242 1.11209,-2.68395 1.40325,-4.1136 0.29297,-1.47718 0.51883,-2.96596 0.75522,-4.45305 0.19331,-1.4711 0.32086,-2.94963 0.38123,-4.4324 0.039,-1.44848 0.0419,-2.89737 -0.13099,-4.33911 -0.17336,-1.42106 -0.40461,-2.83819 -0.84453,-4.20468 -0.42808,-1.34665 -0.91714,-2.67985 -1.61979,-3.91117 -0.71087,-1.185 -1.5101,-2.32163 -2.53024,-3.26436 -1.05958,-0.9707 -2.18113,-1.875013 -3.42791,-2.597694 -1.33002,-0.779532 -2.69444,-1.502405 -4.12397,-2.084498 -1.34704,-0.549063 -2.71346,-1.051937 -4.12891,-1.397757 -1.32685,-0.328397 -2.66718,-0.595054 -4.02257,-0.776923 -1.29762,-0.172249 -2.60034,-0.291369 -3.91094,-0.288044 -1.17435,-0.02061 -2.34818,-0.01303 -3.51876,0.09836 -1.02216,0.0902 -2.03787,0.232368 -3.03955,0.459157 -0.85996,0.185883 -1.71642,0.390105 -2.55517,0.657899 -0.70956,0.229723 -1.4153,0.476483 -2.08704,0.803377 -6.15805,3.098495 22.9804,-12.935985 -1.40035,0.760955 0,0 6.66365,-5.391208 6.66365,-5.391208 z"
           inkscape:connector-curvature="0"
           transform="translate(0,796.36218)" />
      </g>
    </g>
  </g>
</svg>
