<?xml version="1.0" encoding="UTF-8" standalone="no"?>
<!-- Created with Inkscape (http://www.inkscape.org/) -->

<svg
   xmlns:dc="http://purl.org/dc/elements/1.1/"
   xmlns:cc="http://creativecommons.org/ns#"
   xmlns:rdf="http://www.w3.org/1999/02/22-rdf-syntax-ns#"
   xmlns:svg="http://www.w3.org/2000/svg"
   xmlns="http://www.w3.org/2000/svg"
   xmlns:sodipodi="http://sodipodi.sourceforge.net/DTD/sodipodi-0.dtd"
   xmlns:inkscape="http://www.inkscape.org/namespaces/inkscape"
   width="384"
   height="256"
   id="svg3142"
   version="1.1"
   inkscape:version="0.48.4 r9939"
   sodipodi:docname="siger.svg">
  <defs
     id="defs3144">
    <inkscape:perspective
       sodipodi:type="inkscape:persp3d"
       inkscape:vp_x="10.606602 : 174.31549 : 1"
       inkscape:vp_y="-61.048537 : 998.13475 : 0"
       inkscape:vp_z="266.6066 : 174.31549 : 1"
       inkscape:persp3d-origin="138.6066 : 131.64883 : 1"
       id="perspective3779" />
    <inkscape:path-effect
       effect="skeletal"
       id="path-effect3663"
       is_visible="true"
       pattern="M 0,0 0,10 10,5 z"
       copytype="single_stretched"
       prop_scale="1"
       scale_y_rel="false"
       spacing="0"
       normal_offset="0"
       tang_offset="0"
       prop_units="false"
       vertical_pattern="false"
       fuse_tolerance="0" />
    <inkscape:path-effect
       effect="skeletal"
       id="path-effect3619"
       is_visible="true"
       pattern="M 0,0 0,10 10,5 z"
       copytype="single_stretched"
       prop_scale="1"
       scale_y_rel="false"
       spacing="0"
       normal_offset="0"
       tang_offset="0"
       prop_units="false"
       vertical_pattern="false"
       fuse_tolerance="0" />
  </defs>
  <sodipodi:namedview
     id="base"
     pagecolor="#ffffff"
     bordercolor="#666666"
     borderopacity="1.0"
     inkscape:pageopacity="0.0"
     inkscape:pageshadow="2"
     inkscape:zoom="1"
     inkscape:cx="-4.08567"
     inkscape:cy="65.837458"
     inkscape:current-layer="layer1"
     showgrid="true"
     inkscape:document-units="px"
     inkscape:grid-bbox="true"
     inkscape:window-width="1280"
     inkscape:window-height="925"
     inkscape:window-x="0"
     inkscape:window-y="31"
     inkscape:window-maximized="1" />
  <metadata
     id="metadata3147">
    <rdf:RDF>
      <cc:Work
         rdf:about="">
        <dc:format>image/svg+xml</dc:format>
        <dc:type
           rdf:resource="http://purl.org/dc/dcmitype/StillImage" />
        <dc:title />
      </cc:Work>
    </rdf:RDF>
  </metadata>
  <g
     id="layer1"
     inkscape:label="Layer 1"
     inkscape:groupmode="layer"
     transform="translate(0,192)">
    <g
       id="g4072"
       transform="translate(37.81894,-12.134799)"
       style="fill:#e9ddaf">
      <g
         transform="translate(31.112698,32.526912)"
         id="g4065"
         style="fill:#e9ddaf">
        <path
           style="fill:#e9ddaf;fill-opacity:1;stroke:#ff00ff;stroke-width:0;stroke-miterlimit:4;stroke-opacity:1;stroke-dasharray:none"
           id="path4020"
           d="M 56.151374,32.970105 C 55.281014,31.77865 53.752265,31.302728 52.453563,30.737914 48.069358,28.955921 43.397569,28.162982 38.750546,27.419399 31.949881,26.33228 25.098057,25.849475 18.217108,25.934432 c -6.492244,0.06859 -12.9018744,1.052127 -19.2190811,2.479876 -3.6284745,0.868829 -7.182922,2.087437 -10.4973709,3.814217 -0.752476,0.392029 -2.955792,1.667727 -2.212158,1.259175 2.154349,-1.1836 4.2963124,-2.389605 6.4444686,-3.584407 -3.2739186,2.185741 -5.9855246,5.022821 -8.4161896,8.090067 -1.219383,1.771768 -2.738272,3.794238 -2.573375,6.082869 0.02663,0.369656 0.154518,0.724943 0.231777,1.087414 0.215167,0.369977 0.374453,0.778702 0.645501,1.109931 1.594888,1.948998 4.180534,3.249074 6.354411,4.360211 3.1721332,1.621377 5.3098027,2.467368 8.6495431,3.903456 11.8446726,4.644912 23.6888609,9.264132 35.2650359,14.551328 6.034252,2.875277 12.004192,5.978174 17.312062,10.079953 2.973875,2.298131 3.5432,3.005534 6.185696,5.597672 3.193505,3.588904 6.066539,7.8836 5.735516,12.932018 -0.210647,3.212568 -1.058249,4.239018 -2.438757,7.119128 -2.86636,4.26754 -6.911517,7.10174 -11.370041,9.52309 -4.352796,2.36393 -8.67146,4.81259 -13.182891,6.85758 -3.490184,1.58207 -8.946868,2.46284 -12.627138,3.20871 -10.953809,1.54592 -22.18158671,1.22512 -32.895728,-1.67913 -1.962155,-0.53188 -3.870063,-1.24675 -5.805094,-1.87012 -8.166313,-3.0968 -15.92296,-7.41306 -22.407234,-13.31723 -1.084676,-0.98764 -2.076239,-2.07293 -3.114359,-3.10939 -3.177162,-3.67624 -5.618624,-7.899847 -5.292133,-12.922513 0.175491,-2.699708 0.750227,-3.603179 1.720074,-6.083596 3.23138,-6.245314 8.805109,-10.481488 14.208137,-14.729181 0.801486,-0.630653 1.602971,-1.261306 2.404457,-1.891959 0,0 9.021053,-3.608954 9.021053,-3.608954 l 0,0 c -0.821143,0.639059 -1.642285,1.278119 -2.463428,1.917179 -5.362988,4.150466 -10.961491,8.209006 -14.354643,14.249406 -1.009916,2.294938 -1.616211,3.196401 -1.900673,5.72247 -0.539832,4.793798 1.677042,8.880499 4.635738,12.465388 0.997937,1.02771 1.946451,2.10584 2.993811,3.08314 6.291648,5.87076 13.884522,10.16784 21.8813368,13.24077 1.8973023,0.61567 3.7665342,1.32572 5.6919071,1.84702 10.6238442,2.87643 21.7612791,3.11487 32.5977691,1.43482 2.171393,-0.47702 4.370099,-0.84333 6.514179,-1.43106 2.079409,-0.56999 3.984356,-1.96059 6.139104,-2.03738 0.962661,-0.0343 -3.095942,2.1964 -2.180605,1.89632 2.125439,-0.69681 6.716265,-4.07046 8.403065,-5.67259 1.012597,-0.96177 1.821213,-2.11769 2.731819,-3.17653 1.353402,-2.61704 2.219857,-3.65882 2.529248,-6.61054 C 54.067162,97.302813 51.33266,93.166453 48.334722,89.705807 45.728967,87.095501 45.272236,86.489128 42.332811,84.163785 37.166856,80.077062 31.360899,76.919447 25.484906,73.990294 13.929854,68.505661 2.118082,63.862346 -9.9368158,59.593883 c -3.3423002,-1.304286 -5.8821682,-2.235515 -9.1055492,-3.705638 -2.463383,-1.123502 -5.325614,-2.389344 -7.152267,-4.500346 -0.348566,-0.402827 -0.565086,-0.903189 -0.847629,-1.354784 -0.119045,-0.443218 -0.295879,-0.874833 -0.357134,-1.329653 -0.337051,-2.502647 1.080302,-4.756506 2.416848,-6.724798 2.45362,-3.179674 5.177772,-6.147603 8.480951,-8.472379 8.1741238,-4.850658 14.0798916,-9.06231 23.2537009,-10.984726 6.3280991,-1.336682 12.7427411,-2.223789 19.2250071,-2.232576 6.940665,-0.0019 13.854441,0.493982 20.720306,1.542987 4.825147,0.737786 9.67627,1.514801 14.274043,3.218499 1.529413,0.61526 3.137026,1.211865 4.231179,2.509862 0,0 -9.051266,5.409774 -9.051266,5.409774 z"
           inkscape:connector-curvature="0"
           transform="translate(0,-192)" />
        <path
           style="fill:#e9ddaf;fill-opacity:1;stroke:#ff00ff;stroke-width:0;stroke-miterlimit:4;stroke-opacity:1;stroke-dasharray:none"
           id="path4028"
           d="m 76.501063,77.417568 c 0.885438,-0.06004 1.75205,-0.212055 2.607349,-0.447654 1.471486,-0.311812 2.889255,-0.843865 4.288727,-1.387064 1.192973,-0.483461 2.342606,-1.335542 3.673068,-1.327045 0.904214,0.289782 1.149184,1.242095 1.286876,2.07876 0.19248,1.305111 0.142044,2.616898 0.01241,3.923939 -0.186484,1.638041 -0.348565,3.278329 -0.474491,4.922111 -0.141865,1.717227 -0.17974,3.440559 -0.303446,5.158682 -0.164282,1.856636 -0.315504,3.714009 -0.436032,5.574013 -0.13345,1.945255 -0.205258,3.894178 -0.265475,5.84287 -0.06541,1.87605 -0.111326,3.75084 -0.05691,5.62744 0.0401,1.7515 0.428453,3.42429 1.191561,4.99511 0.872679,1.50011 2.123792,2.64918 3.550751,3.6043 1.802341,0.97224 3.747029,0.98743 5.71986,0.69714 0.356349,-0.0778 0.717054,-0.13786 1.069047,-0.23347 0.571527,-0.15524 1.499247,-0.49068 2.036522,-0.74817 0.31121,-0.14914 1.20496,-0.67346 0.90554,-0.50187 -8.440596,4.83702 -10.517386,6.26402 -7.207188,4.0343 1.521518,-1.12964 2.303989,-2.74536 2.942649,-4.47478 0,0 9.245569,-4.35575 9.245569,-4.35575 l 0,0 c -0.51059,1.86328 -1.17639,3.62917 -2.59172,5.00971 -4.132524,3.48158 -9.23692,6.53304 -14.660559,7.40361 -2.181041,0.14034 -4.290792,-0.078 -6.186465,-1.26816 -1.529512,-1.10437 -2.870387,-2.41196 -3.835078,-4.0513 -0.819835,-1.69847 -1.29988,-3.4907 -1.374091,-5.38535 -0.07883,-1.89864 -0.04037,-3.79498 0.03376,-5.69377 0.06509,-1.95626 0.13428,-3.91233 0.23686,-5.86706 0.123289,-1.861211 0.260666,-3.721437 0.429159,-5.579161 0.126972,-1.715501 0.157818,-3.436525 0.286559,-5.152132 0.119814,-1.648435 0.255339,-3.295422 0.447193,-4.937312 0.121915,-1.216585 0.224298,-2.424972 0.01262,-3.640659 -0.05157,-0.363983 0.02906,-0.985901 -0.431574,-0.685858 -1.16369,0.412548 -2.264243,0.977279 -3.418249,1.415176 -1.454433,0.517491 -2.914635,1.021936 -4.43085,1.330378 -0.905596,0.175865 -1.821775,0.285706 -2.720867,0.49184 0,0 8.416904,-6.372814 8.416904,-6.372814 z"
           inkscape:connector-curvature="0"
           transform="translate(0,-192)" />
        <path
           style="fill:#e9ddaf;fill-opacity:1;stroke:#ff00ff;stroke-width:0;stroke-miterlimit:4;stroke-opacity:1;stroke-dasharray:none"
           id="path4046"
           d="m 124.58432,109.23737 c 1.06952,-0.22233 2.07734,-0.60707 3.06749,-1.06887 3.16622,-1.76943 3.72587,-2.08545 -7.4383,4.27467 -0.27247,0.15523 0.53911,-0.32063 0.8043,-0.48799 0.84303,-0.53204 1.64915,-1.11402 2.4543,-1.70082 1.80735,-1.32219 3.45822,-2.8354 5.09653,-4.35692 1.63191,-1.48795 3.03997,-3.1851 4.31944,-4.97881 1.14972,-1.617252 1.97017,-3.418225 2.62688,-5.281469 0.61721,-1.7062 0.98533,-3.423756 0.79035,-5.23355 -0.24258,-1.579436 -1.16399,-2.780184 -2.2758,-3.862955 -1.26476,-1.042126 -2.79412,-1.593032 -4.33272,-2.085019 -1.69565,-0.53759 -3.41414,-0.829586 -5.18652,-0.873967 -1.96628,-0.0057 -3.83058,0.517026 -5.61304,1.306456 -3.42585,1.717861 -3.13208,1.591224 6.97367,-4.038053 0.31364,-0.174706 -0.60686,0.385048 -0.89448,0.599907 -0.86521,0.646341 -1.56081,1.41091 -2.25352,2.23094 -1.25658,1.624533 -2.09856,3.493736 -2.81315,5.404407 -0.65549,1.90531 -1.08119,3.876207 -1.42962,5.857274 -0.32722,2.014984 -0.36833,4.048499 -0.25061,6.081139 0.14094,1.90379 0.54665,3.78013 1.37109,5.50482 0.99891,1.75939 2.69436,2.78102 4.41927,3.71774 1.86028,0.93821 3.84543,1.58461 5.88362,1.99532 2.29201,0.18026 4.52264,-0.4383 6.70349,-1.06456 3.9977,-1.21995 12.49034,-6.52356 -3.13438,2.42628 1.70443,-1.05022 3.19487,-2.40413 4.5964,-3.82377 1.30843,-1.33794 2.27403,-2.93322 3.09174,-4.60324 0.76851,-1.61243 1.26279,-3.32757 1.68732,-5.0563 0.40312,-1.71214 0.65305,-3.455101 0.86406,-5.199766 0.21413,-1.755386 0.30436,-3.521955 0.46171,-5.282383 0.15117,-1.595903 0.40579,-3.180976 0.68495,-4.759001 0.0646,-3.874125 8.30552,-9.326035 9.8772,-5.34617 0.2472,0.99062 0.10316,2.038103 0.0579,3.047327 -0.001,1.567534 -0.18313,3.116382 -0.39764,4.66613 -0.26834,1.884343 -0.57379,3.76398 -0.88437,5.641896 -0.33885,1.886477 -0.62604,3.780827 -0.85772,5.68329 -0.29627,2.034627 -0.56553,4.072067 -0.77871,6.117067 -0.17585,2.26409 -0.52297,4.5098 -0.89944,6.74779 -0.43112,2.31641 -0.75623,4.64964 -1.02868,6.98938 -0.22994,2.5261 -0.49309,5.04894 -0.74147,7.57333 -0.23161,2.38081 -0.36421,4.76908 -0.59281,7.15007 -0.23561,2.21463 -0.4265,4.43339 -0.57166,6.6557 -0.11244,2.39367 -0.41153,4.77295 -0.75243,7.14323 -0.35005,2.15934 -0.66521,4.32391 -0.92363,6.49613 -0.21155,1.98892 -0.50072,3.96836 -0.73975,5.95406 -0.29534,2.10275 -0.55382,4.2083 -0.98386,6.28854 -0.4956,2.40244 -1.11643,4.773 -1.86173,7.10919 -0.70324,2.20354 -1.43156,4.40033 -2.32281,6.53561 -0.90736,2.08267 -2.0504,4.04825 -3.28778,5.94924 -3.11456,4.57437 -7.89366,6.19242 -12.80566,9.05305 -1.48538,0.74041 -2.98253,0.7039 -4.55457,0.34519 -1.74975,-0.57162 -3.39399,-1.42186 -4.90195,-2.47079 -1.53933,-1.07235 -2.79511,-2.45717 -3.92035,-3.94394 -1.09105,-1.45723 -1.72042,-3.16391 -2.2685,-4.88073 -0.58348,-1.89696 -0.87899,-3.86448 -1.13342,-5.82769 -0.27685,-2.21041 -0.42788,-4.4338 -0.56571,-6.65637 -0.11327,-2.4833 -0.22572,-4.96807 -0.25246,-7.45401 0.0223,-2.51661 0.52344,-4.99882 1.20456,-7.41196 0.75765,-2.49453 1.8374,-4.86656 2.99929,-7.19393 1.15652,-2.33862 2.51401,-4.56283 4.12106,-6.6169 1.6978,-2.04887 3.80876,-3.68982 5.99855,-5.17678 4.93081,-3.45475 10.39539,-5.95009 15.66612,-8.7912 0.36343,-0.19689 0.72863,-0.39054 1.09029,-0.59066 5.54673,-3.06914 -10.98834,6.52303 -5.5506,3.16093 0.34625,-0.21408 0.69103,-0.4305 1.03604,-0.64656 0.33717,-0.21115 0.67366,-0.42338 1.0105,-0.63508 3.83179,-2.41539 7.82264,-4.57601 11.73387,-6.85192 2.59245,-1.50853 -5.1936,3.00211 -7.79566,4.49399 -0.33455,0.19182 0.66141,-0.39674 0.99295,-0.5937 0.33386,-0.19833 0.66883,-0.39477 1.00324,-0.59216 5.10738,-2.82033 10.07991,-5.91312 15.25228,-8.62297 2.53013,-1.22002 4.96534,-2.61732 7.42117,-3.97732 -15.4438,8.90887 -4.61129,2.6791 -1.09437,0.50486 2.53422,-1.58218 4.94401,-3.35006 7.30744,-5.17424 2.2644,-1.71511 4.54838,-3.40337 6.78683,-5.15251 2.25614,-1.81127 4.37926,-3.779328 6.44957,-5.797961 1.78859,-1.745119 3.31751,-3.716836 4.62682,-5.839393 1.05253,-1.728883 1.79297,-3.608394 2.42893,-5.521874 0.55614,-1.626131 0.88738,-3.290984 0.82989,-5.009442 -0.0782,-1.253891 -0.72483,-2.245491 -1.58463,-3.113086 -0.96165,-0.896457 -2.15555,-1.403764 -3.3738,-1.843156 -1.40623,-0.457298 -2.85952,-0.784352 -4.3328,-0.912645 -1.72708,-0.08451 -3.39422,0.359222 -5.01217,0.912189 -0.88695,0.325816 -1.74239,0.741391 -2.56261,1.209871 -0.28056,0.160246 -1.10775,0.665452 -0.82682,0.505856 8.02704,-4.560192 10.5312,-6.392235 7.23169,-4.030237 -1.53898,1.17612 -2.79497,2.658899 -3.93206,4.214583 -1.13569,1.566293 -1.894,3.336164 -2.5133,5.15637 -0.57394,1.761471 -0.97923,3.566195 -1.211,5.402684 -0.29028,1.937649 -0.11423,3.871141 0.24924,5.78239 0.43625,2.124707 0.87068,4.251058 1.49036,6.330871 0.69333,2.01506 1.499,3.99067 2.38626,5.92764 0.84715,1.76706 1.99477,3.34158 3.2562,4.82946 1.13022,1.33603 2.56762,2.27213 4.14449,2.98844 2.17128,0.85322 4.49001,1.21314 6.78511,1.55591 2.64471,0.34829 5.30029,0.64248 7.96631,0.75278 2.39234,0.0619 4.74771,-0.32653 7.02536,-1.03249 0.36369,-0.13283 0.7303,-0.2579 1.09105,-0.39848 0.92509,-0.36048 1.21255,-0.49443 2.08815,-0.96034 0.33632,-0.17896 1.32815,-0.74705 0.99803,-0.55691 -8.43822,4.86004 -10.26058,6.04135 -6.76381,3.81646 2.105,-1.41076 3.7159,-3.3685 5.20874,-5.38477 1.44117,-2.00724 2.63426,-4.17052 3.71874,-6.38594 1.06486,-2.35977 2.05384,-4.75518 2.96373,-7.17894 0.86665,-2.24493 1.62472,-4.526034 2.26276,-6.845742 0.51421,-1.979611 0.99593,-3.968094 1.56011,-5.934225 0.55723,-1.777866 1.05024,-3.573215 1.44531,-5.393914 0.0384,-0.937507 0.66524,-1.946067 0.37338,-2.873349 9.57828,-5.013877 10.01238,-7.291182 9.54313,-1.953191 -0.10788,1.365663 -0.17643,2.732838 -0.31415,4.096001 -0.17417,1.662054 -0.30963,3.3276 -0.41638,4.995231 -0.11159,1.715781 -0.17003,3.434137 -0.23123,5.152236 -0.0616,1.751395 -0.0658,3.504382 -0.14042,5.255234 -0.16165,1.796743 -0.42093,3.584093 -0.70835,5.364649 -0.29661,1.74386 -0.53054,3.49676 -0.71783,5.25543 -0.14671,1.67205 -0.40087,3.33185 -0.60678,4.99711 -0.0603,1.15374 -0.36974,2.3303 -0.28289,3.4901 -9.22837,5.28988 -9.47048,7.68519 -9.67489,2.35317 -0.0462,-1.29407 -0.0611,-2.589 -0.0812,-3.88368 -0.009,-1.52715 -0.0694,-3.05273 0.0496,-4.57657 0.1661,-1.58814 0.46443,-3.15858 0.77821,-4.72303 0.38432,-1.85711 0.93792,-3.6663 1.56992,-5.451865 0.61782,-1.807751 1.48449,-3.507714 2.43812,-5.157389 1.02068,-1.740217 2.24811,-3.343528 3.49257,-4.926782 1.15077,-1.517528 2.56698,-2.789359 3.9758,-4.057895 3.92164,-3.394992 8.57208,-5.938591 13.2725,-8.088166 1.67701,-0.76836 3.45015,-1.264344 5.23704,-1.697524 1.78262,-0.50911 3.59422,-0.173859 5.37305,0.148738 2.06796,0.406323 3.98628,1.304023 5.85513,2.246728 1.97216,1.020316 3.96459,2 5.93945,3.014491 1.86695,1.078762 3.81544,1.974043 5.85309,2.673056 2.32555,0.780922 4.7325,1.096644 7.1734,1.153062 3.48975,0.128131 6.48488,-1.248152 9.43164,-2.955723 -7.0545,3.750197 -7.58442,4.556887 -2.83902,0.569226 0,0 8.78939,-3.57409 8.78939,-3.57409 l 0,0 c -5.92003,5.441928 -1.71217,1.903408 -13.66726,9.233144 -3.31525,1.770363 -6.18958,2.912263 -10.00868,2.705254 -2.52233,-0.132247 -5.01399,-0.539462 -7.40888,-1.368351 -2.05525,-0.755309 -4.0074,-1.718093 -5.91902,-2.785181 -1.98509,-0.985618 -3.94375,-2.020134 -5.928,-3.007065 -1.83241,-0.871074 -3.71968,-1.663896 -5.74234,-1.960723 -1.72513,-0.260597 -3.42946,-0.353891 -5.11831,0.197838 -1.75019,0.473369 -3.47737,1.037637 -5.09877,1.861197 -3.60127,1.906656 -0.74737,0.40904 7.25907,-4.247389 1.2157,-0.70703 -4.04998,2.311178 -2.87692,1.974984 -1.40274,1.255609 -2.86644,2.460724 -4.07514,3.912383 -1.24326,1.543518 -2.4726,3.103932 -3.52268,4.788194 -0.97523,1.587877 -1.88098,3.222128 -2.52338,4.977371 -0.63298,1.73945 -1.23808,3.48406 -1.60297,5.304265 -0.32013,1.529662 -0.59919,3.069402 -0.80396,4.618942 -0.18768,1.48174 -0.11896,2.96898 -0.0885,4.45936 0.0222,1.27931 0.0506,2.55857 0.10783,3.83688 0.26348,5.1338 1.12391,1.96761 -9.18769,6.89909 0.51822,-0.2993 0.39108,-2.76871 0.55477,-3.35943 0.20209,-1.66472 0.47161,-3.32106 0.63414,-4.98995 0.18184,-1.77765 0.38867,-3.55265 0.6995,-5.3132 0.28885,-1.74785 0.53298,-3.50134 0.74843,-5.25989 0.11485,-1.741875 0.0782,-3.489817 0.15061,-5.233929 0.0463,-1.726873 0.11445,-3.453436 0.21081,-5.178247 0.10242,-1.674706 0.21631,-3.348587 0.3863,-5.018057 0.12097,-1.348034 0.19652,-2.69599 0.26285,-4.047857 0.32681,-5.119663 -0.0537,-2.423158 9.64934,-6.611756 -0.0611,-0.08451 -0.0879,-0.211152 -0.18316,-0.253542 -0.0673,-0.02995 -0.11493,0.139875 -0.2191,0.479138 -0.20565,0.669789 -0.38122,1.348375 -0.51065,2.037387 -0.37565,1.852869 -0.83729,3.684289 -1.42951,5.481177 -0.60483,1.955756 -1.07427,3.951027 -1.60332,5.928085 -0.63703,2.356514 -1.3726,4.681893 -2.27784,6.950904 -0.88406,2.449422 -1.89126,4.851731 -2.89445,7.254157 -1.07037,2.2721 -2.24018,4.49524 -3.67485,6.56331 -1.45689,2.08598 -3.00869,4.13882 -5.03719,5.7092 -4.65124,3.28233 -9.66011,6.34202 -15.10617,8.09935 -2.3555,0.58764 -4.76402,0.90007 -7.197,0.74454 -2.68086,-0.17405 -5.35352,-0.4669 -8.01351,-0.8431 -2.3929,-0.37499 -4.8162,-0.76654 -7.05294,-1.73834 -1.67243,-0.83428 -3.18454,-1.90501 -4.37809,-3.36424 -1.30194,-1.5715 -2.46957,-3.24632 -3.37435,-5.08198 -0.90222,-1.98066 -1.70063,-4.00683 -2.42638,-6.0587 -0.66493,-2.10026 -1.09592,-4.26069 -1.56086,-6.412303 -0.41198,-1.992368 -0.68872,-4.016873 -0.4308,-6.052167 0.2063,-1.900487 0.55995,-3.771353 1.14217,-5.596588 0.59058,-1.897616 1.27158,-3.772792 2.38851,-5.434946 1.09661,-1.63712 2.31925,-3.193674 3.8021,-4.503071 4.08975,-3.348036 8.97187,-5.963708 13.93473,-7.840605 1.72728,-0.478464 3.49076,-0.812324 5.29015,-0.582158 1.53303,0.221864 3.05467,0.559095 4.50641,1.108771 1.33096,0.541127 2.61176,1.186226 3.63522,2.221557 0.99103,1.069634 1.76949,2.283535 1.91799,3.771025 0.13265,1.834778 -0.15444,3.622994 -0.7127,5.375764 -0.62617,1.983139 -1.33339,3.94699 -2.37856,5.754452 -1.28694,2.219576 -2.79831,4.284981 -4.60557,6.11592 -2.06382,2.033341 -4.16641,4.028768 -6.38789,5.890818 -2.2312,1.779461 -4.52196,3.480621 -6.82092,5.171251 -2.348,1.85999 -4.75202,3.65232 -7.27297,5.27328 -5.32099,3.39202 -10.94007,6.29353 -16.32339,9.58002 -2.46296,1.36941 -4.94016,2.70943 -7.45328,3.98486 -3.65742,2.01009 -13.33834,7.43713 2.30696,-1.47119 -5.78886,3.26893 -21.4487,12.4018 -3.97393,2.31741 0.6684,-0.38572 -2.66974,1.56762 -1.98483,1.19178 -4.93407,3.13602 -9.977,6.10347 -15.13984,8.84852 -1.12241,0.58527 -2.25781,1.14473 -3.38083,1.72858 -0.39027,0.20289 -1.54335,0.84417 -1.16429,0.62104 2.11783,-1.24665 10.99195,-6.39895 6.38215,-3.69083 -2.2068,1.37672 -4.30765,2.9446 -6.07254,4.86861 -1.68558,1.95569 -3.09656,4.11023 -4.24116,6.42813 -1.17959,2.26368 -2.26149,4.57907 -3.04857,7.01257 -0.73285,2.31178 -1.27214,4.71161 -1.33757,7.144 -0.0224,2.46516 0.11051,4.92826 0.2446,7.38921 0.13027,2.19809 0.28503,4.39605 0.55373,6.58223 0.25015,1.90143 0.53654,3.80546 1.08688,5.64733 0.49955,1.60973 1.08327,3.20349 2.1015,4.56824 1.05687,1.40047 2.25421,2.68265 3.72667,3.65808 1.44477,0.92849 2.99874,1.73947 4.69493,2.08501 1.47811,0.16241 2.83789,-0.11555 4.1171,-0.90573 -15.47848,9.05728 -7.30133,5.11041 -4.69874,1.58864 1.29046,-1.82727 2.43422,-3.75706 3.38828,-5.78214 0.93759,-2.09776 1.66301,-4.27913 2.38506,-6.45885 0.76121,-2.29899 1.40649,-4.62658 1.89377,-7.00059 0.42902,-2.04525 0.67789,-4.11285 0.96442,-6.1822 0.24368,-1.98954 0.54613,-3.97139 0.76644,-5.9636 0.25705,-2.1888 0.57014,-4.36941 0.9374,-6.54264 0.38148,-2.33577 0.69075,-4.69177 0.78358,-7.05823 0.14362,-2.23319 0.29866,-4.46573 0.55324,-6.68964 0.26037,-2.38323 0.41567,-4.77364 0.62657,-7.1616 0.24663,-2.52665 0.5441,-5.04827 0.73378,-7.58031 0.23265,-2.35754 0.55378,-4.70451 0.97543,-7.03616 0.39129,-2.21006 0.75733,-4.43198 0.91536,-6.67245 0.1908,-2.04665 0.43233,-4.08657 0.73466,-6.11993 0.22848,-1.91879 0.49148,-3.832751 0.84837,-5.732536 0.31863,-1.862927 0.5918,-3.734664 0.87612,-5.602846 0.2048,-1.509282 0.40567,-3.00994 0.37068,-4.537365 0.0254,-0.880669 0.0938,-1.777174 0.0277,-2.652355 -0.77981,-3.549766 -0.0261,0.07047 9.32939,-4.928862 0.0581,-0.03106 -0.10199,-0.103659 -0.16789,-0.104436 -0.24667,-0.0029 -0.34421,0.642897 -0.41439,0.742829 -0.39096,1.539624 -0.6609,3.11104 -0.82341,4.690923 -0.17706,1.764291 -0.23682,3.538706 -0.4481,5.300217 -0.19884,1.779548 -0.43678,3.555126 -0.80775,5.308335 -0.41303,1.786916 -0.87285,3.570069 -1.61471,5.253786 -0.77972,1.75331 -1.68563,3.45919 -2.96142,4.9095 -1.3685,1.50207 -2.87186,2.88531 -4.5112,4.08883 -4.7522,2.74845 -9.29574,6.05728 -14.63578,7.54313 -2.2966,0.57731 -4.64455,1.11947 -7.01847,0.67911 -2.09677,-0.51495 -4.15152,-1.20198 -6.05139,-2.24445 -1.87407,-1.08728 -3.69066,-2.29522 -4.7726,-4.23942 -0.89129,-1.83933 -1.37011,-3.83072 -1.5395,-5.86784 -0.13766,-2.10226 -0.16379,-4.1979 0.13873,-6.290742 0.33478,-2.030128 0.72573,-4.051337 1.3593,-6.013344 0.64928,-2.011102 1.50008,-3.957681 2.68987,-5.713347 3.24756,-4.59661 8.68965,-7.002379 13.737,-9.221198 1.90742,-0.671074 3.8771,-1.104142 5.91379,-0.980814 1.82688,0.135377 3.60841,0.539811 5.3508,1.105545 1.66456,0.586017 3.29897,1.265225 4.62092,2.47369 1.22008,1.271621 2.25348,2.686993 2.58262,4.46033 0.30785,1.952492 0.055,3.811263 -0.61424,5.673928 -0.62144,1.946036 -1.37514,3.848723 -2.52296,5.553879 -1.25225,1.858377 -2.62622,3.635723 -4.25287,5.186023 -1.62343,1.5418 -3.25715,3.0772 -5.02788,4.45119 -4.17441,3.23028 -8.79227,5.92843 -13.55889,8.17028 -1.08055,0.41918 -2.18969,0.75619 -3.32405,0.99537 0,0 8.4169,-6.37282 8.4169,-6.37282 z"
           inkscape:connector-curvature="0"
           transform="translate(0,-192)" />
      </g>
      <path
         transform="translate(0,-192)"
         inkscape:connector-curvature="0"
         d="m 110.18103,85.389798 c 0.66549,0.221517 1.3291,0.454376 1.99718,0.671237 1.02105,0.419698 2.02549,0.878071 3.0471,1.296506 1.26366,0.52106 2.41926,1.256846 3.53189,2.042225 1.31831,0.927611 2.56281,1.955971 3.6793,3.118787 1.1135,1.183058 2.11025,2.456174 2.85694,3.900459 0.58765,1.173261 0.6911,2.441143 0.46944,3.715608 -0.10738,0.52531 -0.3458,0.9874 -0.60778,1.44738 0,0 -6.75875,2.92295 -6.75875,2.92295 l 0,0 c 0.33445,-0.35345 0.59233,-0.71662 0.74677,-1.18756 0.33854,-1.10056 0.30077,-2.23012 -0.18136,-3.28947 -0.688,-1.394687 -1.65412,-2.603792 -2.73595,-3.717614 -1.09332,-1.121325 -2.30621,-2.114008 -3.60416,-2.991376 -1.10706,-0.729428 -2.24868,-1.410939 -3.49069,-1.888469 -1.01034,-0.42095 -2.00931,-0.875125 -3.04744,-1.224571 -0.66601,-0.211857 -1.33493,-0.442161 -2.02736,-0.548248 0,0 6.12487,-4.267844 6.12487,-4.267844 z"
         id="path4070"
         style="fill:#e9ddaf;fill-opacity:1;stroke:#ff00ff;stroke-width:0;stroke-miterlimit:4;stroke-opacity:1;stroke-dasharray:none" />
    </g>
  </g>
</svg>
